<?xml version="1.0" encoding="utf-8"?>
<!-- Generator: Adobe Illustrator 27.5.0, SVG Export Plug-In . SVG Version: 6.00 Build 0)  -->
<svg version="1.1" xmlns="http://www.w3.org/2000/svg" xmlns:xlink="http://www.w3.org/1999/xlink" x="0px" y="0px"
	 viewBox="0 0 500 500" style="enable-background:new 0 0 500 500;" xml:space="preserve">
<g id="Background_Simple">
	<g>
		<g>
			<g>
				<path style="fill:#FFE6DE;" d="M482.79,265.247c-1.38,19.46-5.13,34.37-10.58,46.02c-0.48,1.04-0.98,2.05-1.49,3.03
					c-0.01,0.01-0.01,0.02-0.01,0.03c-0.5,0.99-1.03,1.93-1.57,2.87c-0.45,0.79-0.92,1.55-1.39,2.32
					c-3.08,4.95-6.54,9.2-10.28,12.89c-0.35,0.35-0.7,0.69-1.05,1.02c-0.6,0.58-1.22,1.14-1.84,1.69c-0.91,0.81-1.84,1.57-2.78,2.33
					c-5.82,4.65-12.19,8.28-18.87,11.39c-6.37,2.99-12.95,5.04-19.61,6.2c-2.64,0.45-5.26,0.91-7.85,1.35
					c-3.89,0.67-7.72,1.33-11.5,1.97c-6.55,1.12-12.94,2.2-19.2,3.25c-0.69,0.12-1.36,0.22-2.05,0.33
					c-27.55,4.58-52.7,8.44-78.07,11.46c-3.81,0.46-7.63,0.9-11.46,1.31c-32.36,3.52-65.71,5.68-105.4,6.27
					c-25.81,0.39-56.41,0.18-81.2-9.98c-24.8-10.17-48.4-26.45-61.58-57.92c-15.01-35.89-10.28-85.07-9.4-126.77
					c0.78-37.06,2.54-77.38,19.82-105.21c2.34-3.78,4.88-7.18,7.61-10.26c1.36-1.56,2.77-3.03,4.23-4.43c0,0-0.01-0.01,0.01-0.01
					c0.12-0.12,0.24-0.23,0.36-0.35c7.11-6.76,15.12-11.7,23.52-15.46c9.55-4.3,19.62-7.12,29.46-9.44
					c0.08-0.02,0.17-0.04,0.25-0.06c0.07-0.02,0.13-0.03,0.2-0.05c0.5-0.12,1.01-0.23,1.51-0.35c0.92-0.21,1.84-0.42,2.76-0.62
					c0.82-0.19,1.64-0.37,2.45-0.55c9.49-2.12,18.99-4.05,28.53-5.77c0.14-0.03,0.29-0.05,0.43-0.08h0.01
					c0.06-0.02,0.11-0.03,0.17-0.04c0.03-0.01,0.07-0.01,0.1-0.02c1.06-0.2,2.11-0.39,3.17-0.57c0.24-0.04,0.49-0.09,0.73-0.13
					c1.22-0.21,2.43-0.43,3.64-0.63c1.23-0.22,2.46-0.42,3.69-0.62c25.52-4.23,51.17-7.13,76.85-8.68c0.93-0.06,1.86-0.11,2.79-0.16
					c41.62-2.37,83.34-1.21,124.87,3.5c10.27,1.17,20.84,2.78,31.2,5.48h0.01c4.1,1.07,8.17,2.3,12.17,3.76
					c9,3.26,17.66,7.59,25.64,13.44c0.01,0,0.01,0.01,0.02,0.01c3.78,2.78,7.42,5.91,10.86,9.43c5.01,5.13,9.61,11.11,13.67,18.08
					c10.58,18.14,15.95,40.54,19.32,63.86c0.57,3.87,1.07,7.77,1.53,11.68c1.06,8.84,1.91,17.73,2.72,26.49
					c0.43,4.61,0.84,9.22,1.23,13.85c0,0,0,0,0,0.01c0.78,9.19,1.46,18.39,1.9,27.61c0.01,0.01,0,0.01,0,0.01
					C483.76,235.107,483.87,250.207,482.79,265.247z"/>
				<g>
					<g>
						<path style="fill:#FFFFFF;" d="M473.2,296.157c-0.29,5.04-0.62,10.07-0.99,15.11c-0.48,1.04-0.98,2.05-1.49,3.03
							c1-13.1,1.75-26.23,2.21-39.36c0.03-0.85,0.06-1.7,0.08-2.55c0.12-3.43,0.22-6.85,0.29-10.28c0.19-8.61,0.26-17.22,0.22-25.83
							c-0.01-1.16-0.02-2.32-0.03-3.48c-0.03-3.04-0.07-6.08-0.13-9.12c-0.13-7.32-0.35-14.63-0.65-21.95
							c-0.03-0.81,1.23-0.95,1.27-0.13c0.42,10.33,0.68,20.67,0.77,31.01c0.01,0.64,0.02,1.29,0.02,1.93c0,0.45,0.01,0.89,0.01,1.34
							v1.3C474.86,256.847,474.34,276.517,473.2,296.157z"/>
					</g>
					<path style="fill:#FFFFFF;" d="M474.876,237.194c5.936-6.57,8.692-15.57,8.973-24.42c0.281-8.85-1.731-17.62-4.355-26.076
						c-1.224-3.944-3.395-8.524-7.507-8.902c-4.238-0.39-7.246,4.013-8.743,7.997c-6.267,16.678-0.297,37.431,10.906,51.284
						L474.876,237.194z"/>
					<path style="fill:#FFFFFF;" d="M473.357,274.594c-1.899-12.706-5.395-27.184-10.982-38.752c-0.75-1.553-1.655-3.21-3.248-3.87
						c-1.917-0.796-4.218,0.226-5.47,1.881c-1.252,1.655-1.665,3.788-1.879,5.853c-1.567,15.133,8.247,27.945,21.492,35.43
						L473.357,274.594z"/>
					<g>
						<path style="fill:#FFFFFF;" d="M457.47,332.407c-0.35,0.35-0.7,0.69-1.05,1.02c-0.17-0.76-0.34-1.52-0.51-2.28
							c-0.91-4.02-1.95-8.01-3.1-11.96c-0.14-0.49-0.29-0.98-0.44-1.47c-4.26-14.25-10.05-28.05-17.26-41.08
							c-0.28-0.54-0.58-1.08-0.9-1.62c-0.83-1.49-1.68-2.97-2.56-4.44c-0.08-0.13-0.11-0.27-0.09-0.39
							c0.04-0.54,0.78-0.93,1.12-0.36c1.38,2.32,2.71,4.66,4,7.02c1.69,3.08,3.29,6.19,4.82,9.35c0.75,1.56,1.48,3.12,2.19,4.7
							c0.33,0.72,0.66,1.45,0.97,2.18c0.09,0.19,0.17,0.38,0.25,0.57c0.25,0.57,0.5,1.14,0.73,1.71c2.3,5.41,4.37,10.9,6.2,16.48
							c0.63,1.89,1.22,3.78,1.78,5.68C455.09,322.427,456.38,327.397,457.47,332.407z"/>
					</g>
					<path style="fill:#FFFFFF;" d="M436.746,277.236c-2.26-14.175-11.01-27.182-23.288-34.618
						c-2.648-1.604-6.051-2.955-8.719-1.382c-1.823,1.075-2.731,3.301-2.728,5.417c0.003,2.116,0.779,4.152,1.663,6.075
						C409.352,265.076,423.941,272.681,436.746,277.236L436.746,277.236z"/>
					<path style="fill:#FFFFFF;" d="M453.419,319.224c-7.716-11.645-21.217-19.242-35.176-19.794
						c-2.262-0.089-4.596,0.009-6.667,0.924c-2.07,0.915-3.837,2.799-4.049,5.053c-0.316,3.364,2.705,6.051,5.623,7.754
						C424.315,319.679,440.527,318.264,453.419,319.224L453.419,319.224z"/>
					<path style="fill:#FFFFFF;" d="M453.43,317.769c6.433-8.259,10.528-18.318,11.691-28.722c0.19-1.695,0.204-3.66-1.066-4.797
						c-1.021-0.913-2.607-0.957-3.869-0.426c-1.262,0.531-2.257,1.541-3.141,2.587c-5.645,6.678-6.281,21.737-4.538,30.306
						L453.43,317.769z"/>
					<path style="fill:#FFFFFF;" d="M446.399,295.831c5.078-11.702,7.076-21.281,4.891-33.849c-0.57-3.276-2.117-7.182-5.428-7.486
						c-1.938-0.178-3.789,1.097-4.81,2.755c-1.021,1.657-1.358,3.639-1.564,5.574c-1.197,11.258,2.6,20.875,5.142,31.907
						L446.399,295.831z"/>
					<g>
						<path style="fill:#FFE6DE;" d="M474.995,233.962c-2.621-13.941-3.64-28.155-3.001-42.326c0.036-0.807-1.217-1.019-1.254-0.202
							c-0.645,14.289,0.348,28.609,2.992,42.667C473.882,234.898,475.146,234.768,474.995,233.962L474.995,233.962z"/>
					</g>
					<g>
						<path style="fill:#FFE6DE;" d="M459.587,251.315c2.807,7.543,6.592,14.697,11.245,21.264c0.473,0.668,1.503-0.076,1.03-0.744
							c-4.594-6.483-8.318-13.531-11.09-20.978C460.487,250.09,459.301,250.547,459.587,251.315L459.587,251.315z"/>
					</g>
					<g>
						<path style="fill:#FFE6DE;" d="M454.757,313.232c2.184-7.283,4.369-14.566,6.553-21.85c0.234-0.78-1.022-0.975-1.254-0.202
							c-2.184,7.283-4.368,14.566-6.553,21.85C453.269,313.81,454.526,314.005,454.757,313.232L454.757,313.232z"/>
					</g>
					<g>
						<path style="fill:#FFE6DE;" d="M419.793,307.931c11.115,1.137,21.863,4.853,31.277,10.878
							c0.682,0.436,1.495-0.541,0.808-0.981c-9.607-6.148-20.531-9.991-31.882-11.151
							C419.185,306.595,418.977,307.848,419.793,307.931L419.793,307.931z"/>
					</g>
					<g>
						<path style="fill:#FFE6DE;" d="M445.991,263.941c0.27,9.727-0.176,19.454-1.33,29.116c-0.097,0.809,1.157,1.016,1.254,0.202
							c1.167-9.773,1.613-19.618,1.339-29.456C447.232,262.986,445.969,263.127,445.991,263.941L445.991,263.941z"/>
					</g>
					<g>
						<path style="fill:#FFE6DE;" d="M434.366,274.152c-6.11-9.406-14.631-17.081-24.607-22.204
							c-0.729-0.374-1.254,0.783-0.528,1.155c9.787,5.026,18.113,12.568,24.105,21.792
							C433.783,275.583,434.811,274.837,434.366,274.152L434.366,274.152z"/>
					</g>
				</g>
				<g>
					<path style="fill:#FFFFFF;" d="M239.051,245.387c-0.013-1.11-0.025-2.22-0.025-3.343c-0.164-22.276-0.392-45.965-0.607-69.666
						c-0.013-0.996-0.013-1.993-0.025-2.99c-0.215-23.727-0.43-47.415-0.582-69.653c0-1.123,0.1-75.811,0.088-76.921
						c-28.404,1.471-57.21,4.839-86.972,10.096l0,0l0,0l0,0c0,0-3.7,0.307-4.168,0.752c-11.968,2.015-23.965,4.682-35.886,7.419
						c-20.085,4.629-42.273,11.013-57.034,29.192c-0.089,8.994-0.937,16.721-1.001,26.938c0,0.568,0,1.148-0.013,1.716
						c-0.114,22.175-0.19,46.633-0.253,71.117v1.69c-0.063,24.433-0.127,48.866-0.24,71.054c-0.013,0.618-0.013,1.236-0.013,1.854
						c-0.152,25.366-0.367,47.705-0.747,63.649h187.72C239.317,290.002,239.215,268.508,239.051,245.387z"/>
					<g>
						<path style="fill:#FFE6DE;" d="M50.806,98.797c30.932,2.162,62.409,0.751,93.411,0.879c31.135,0.128,62.277,0.345,93.411,0.07
							c2.165-0.019,2.169-3.335,0-3.354c-31.134-0.275-62.276-0.058-93.411,0.07c-31.001,0.128-62.479-1.283-93.411,0.879
							C49.866,97.406,49.864,98.731,50.806,98.797L50.806,98.797z"/>
					</g>
					<g>
						<path style="fill:#FFE6DE;" d="M50.806,171.621c30.932,2.162,62.409,0.751,93.411,0.879
							c31.135,0.128,62.277,0.345,93.411,0.07c2.165-0.019,2.169-3.335,0-3.354c-31.134-0.275-62.276-0.059-93.411,0.07
							c-31.001,0.127-62.479-1.283-93.411,0.879C49.866,170.229,49.864,171.555,50.806,171.621L50.806,171.621z"/>
					</g>
					<g>
						<path style="fill:#FFE6DE;" d="M49.136,244.445c31.491,2.162,63.52,0.751,95.081,0.879c31.691,0.128,63.39,0.344,95.081,0.07
							c2.165-0.019,2.169-3.335,0-3.354c-31.691-0.275-63.39-0.059-95.081,0.07c-31.562,0.128-63.588-1.284-95.081,0.879
							C48.196,243.052,48.194,244.38,49.136,244.445L49.136,244.445z"/>
					</g>
					<g>
						<path style="fill:#FFE6DE;" d="M148.842,308.292c-0.025,0.605-0.063,1.198-0.101,1.804c-0.139,2.371-3.544,2.359-3.695,0
							c-0.038-0.605-0.063-1.198-0.101-1.804c-0.987-18.605-0.278-37.4-0.316-56.018c0-2.321-0.013-4.629-0.013-6.95v-3.217
							c-0.038-23.197-0.051-46.406,0.013-69.603c0-1.072,0-2.144,0.013-3.216c0.025-9.978,0.076-19.955,0.139-29.933
							c0.089-13.232,0.291-26.451,0.544-39.683c0.025-1.072,0.051-2.144,0.063-3.217c0.418-20.75,0.937-41.487,1.354-62.224
							c0-0.202,0.013-0.416,0.013-0.618v-0.013c0.025-0.164,0.266-0.164,0.278,0v0.013c0,0.189,0.013,0.366,0.013,0.555
							c0.392,19.059,1.342,38.157,1.607,57.254c0.025,1.678,0.038,3.343,0.063,5.02c0.013,1.085,0.025,2.157,0.038,3.242
							c0.278,23.184,0.392,46.381,0.456,69.578v3.267c0.025,10.608,0.038,21.204,0.038,31.812c0,12.589-0.025,25.164-0.051,37.74
							c-0.013,1.085-0.013,2.182-0.013,3.267c-0.013,4.781-0.013,9.561-0.025,14.342
							C149.133,275.837,149.715,292.146,148.842,308.292z"/>
					</g>
					<g>
						<path style="fill:#FFE6DE;" d="M177.038,151.925c15.257-9.685,30.527-19.878,45.018-30.67
							c1.011-0.752,0.104-2.442-1.016-1.733c-15.28,9.673-30.269,20.294-44.782,31.074
							C175.482,151.172,176.18,152.469,177.038,151.925L177.038,151.925z"/>
					</g>
					<g>
						<path style="fill:#FFE6DE;" d="M179.03,140.258c5.003-2.209,9.175-6.491,13.183-10.09c0.743-0.667-0.258-2.011-1.086-1.403
							c-4.397,3.228-9.449,6.436-12.663,10.929C178.196,140.068,178.698,140.405,179.03,140.258L179.03,140.258z"/>
					</g>
					<g>
						<path style="fill:#FFE6DE;" d="M72.233,222.997c13.46-9.115,26.603-18.662,39.802-28.146c0.922-0.663,0.057-2.2-0.905-1.543
							c-13.415,9.157-26.87,18.24-40.025,27.767C69.962,221.902,71.029,223.812,72.233,222.997L72.233,222.997z"/>
					</g>
					<g>
						<path style="fill:#FFE6DE;" d="M97.085,219.868c4.955-3.014,9.972-5.967,14.756-9.249c1.155-0.793,0.127-2.628-1.114-1.899
							c-5.006,2.94-9.81,6.23-14.644,9.438C95.028,218.859,95.984,220.538,97.085,219.868L97.085,219.868z"/>
					</g>
					<g>
						<path style="fill:#FFE6DE;" d="M88.035,82.147c10.679-6.454,21.784-13.65,31.021-22.066c0.835-0.761-0.261-2.21-1.22-1.576
							c-10.478,6.929-20.419,15.231-30.269,23.037C87.221,81.817,87.667,82.37,88.035,82.147L88.035,82.147z"/>
					</g>
				</g>
			</g>
			<path style="fill:#FFFFFF;" d="M295.38,31.857l-0.06,30.18l-0.04,15.68l-0.06,29.95l-0.03,15.68l-0.07,29.95l-0.03,15.69
				l-0.07,29.95l-0.03,15.68l-0.06,29.95l-0.04,15.69l-0.06,29.95l-0.03,15.68l-0.07,29.95l-0.03,15.68l-0.05,21.88
				c-3.81,0.46-7.63,0.9-11.46,1.31V31.797C287.01,30.667,291.57,30.727,295.38,31.857z"/>
			<path style="fill:#FFFFFF;" d="M406.16,31.857l-0.01,3.7l-0.43,205.24l-0.04,15.55l-0.21,100.04c-3.89,0.67-7.72,1.33-11.5,1.97
				V31.797h0.01C397.8,30.667,402.35,30.727,406.16,31.857z"/>
			<rect x="289.288" y="62.032" style="fill:#FFFFFF;" width="110.764" height="15.684"/>
			<rect x="289.288" y="107.666" style="fill:#FFFFFF;" width="110.764" height="15.684"/>
			<rect x="289.288" y="153.3" style="fill:#FFFFFF;" width="110.764" height="15.684"/>
			<rect x="289.288" y="198.935" style="fill:#FFFFFF;" width="110.764" height="15.684"/>
			<rect x="289.288" y="244.569" style="fill:#FFFFFF;" width="110.764" height="15.684"/>
			<rect x="289.288" y="290.203" style="fill:#FFFFFF;" width="110.764" height="15.684"/>
			<rect x="289.288" y="335.837" style="fill:#FFFFFF;" width="110.764" height="15.684"/>
			<g>
				<path style="fill:#FFE6DE;" d="M295.419,52.146c0,5.931,0,11.862,0,17.793c0,8.668,0,17.336,0,26.003
					c0,10.668,0,21.335,0,32.003c0,12.052,0,24.103,0,36.155c0,12.846,0,25.693,0,38.54c0,12.865,0,25.729,0,38.594
					c0,12.292,0,24.583,0,36.875c0,11.067,0,22.134,0,33.202c0,9.23,0,18.46,0,27.69c0,6.651,0,13.301,0,19.952
					c0,1.17,0,2.34,0,3.51c0,0.804,1.25,0.806,1.25,0c0-5.931,0-11.862,0-17.793c0-8.668,0-17.335,0-26.003
					c0-10.667,0-21.335,0-32.003c0-12.052,0-24.103,0-36.155c0-12.846,0-25.693,0-38.54c0-12.865,0-25.729,0-38.594
					c0-12.292,0-24.583,0-36.875c0-11.067,0-22.134,0-33.202c0-9.23,0-18.46,0-27.69c0-6.651,0-13.301,0-19.952
					c0-1.17,0-2.34,0-3.51C296.669,51.341,295.419,51.34,295.419,52.146L295.419,52.146z"/>
			</g>
			<g>
				<path style="fill:#FFE6DE;" d="M394.595,358.357c0-19.856,0-39.713,0-59.569c0-21.06,0-42.12,0-63.18
					c0-21.898,0-43.796,0-65.695c0-21.166,0-42.331,0-63.497c0-19.779,0-39.558,0-59.337c0-1.714,0-3.428,0-5.142
					c0-0.804-1.25-0.806-1.25,0c0,18.842,0,37.685,0,56.527c0,21.181,0,42.362,0,63.543c0,21.831,0,43.663,0,65.494
					c0,21.11,0,42.22,0,63.329c0,20.066,0,40.132,0,60.198c0,2.443,0,4.886,0,7.328
					C393.345,359.161,394.595,359.163,394.595,358.357L394.595,358.357z"/>
			</g>
		</g>
		<path style="fill:#FFFFFF;" d="M431.786,48.994c0,0,0.767,100.295,2.052,103.061c1.284,2.767,43.359,0,43.359,0
			S470.819,66.121,431.786,48.994z"/>
		<path style="fill:#FFE6DE;" d="M442.651,56.154c0,0,0.792,82.492,2.005,84.14c1.213,1.648,32.54,0,32.54,0
			S467.775,70.935,442.651,56.154z"/>
	</g>
</g>
<g id="Speech_Bubble_2">
	<g>
		<g>
			<g>
				<path style="fill:#8380FF;" d="M304.641,86.088c5.708-5.32,15.619-7.058,23.22-5.293c7.601,1.764,14.166,7.49,16.947,14.781
					c1.168,3.062,1.696,6.44,1.004,9.644c-0.692,3.204-2.713,6.199-5.666,7.621c1.661,1.757,3.653,3.199,5.835,4.238
					c0.959,0.457,0.986,2.068-0.063,2.237c-4.957,0.798-9.005,0.279-12.208-1.836c-5.208,2.683-12.917,2.313-18.737,1.636
					c-5.82-0.677-11.501-3.902-14.265-9.068C297.126,103.351,297.281,92.411,304.641,86.088"/>
			</g>
		</g>
		<g>
			<g>
				<g>
					<path style="fill:#A0D2F4;" d="M306.673,105.031c3.798-1.217,6.885-4.205,8.044-8.053c0.434-1.44,0.636-3.391-0.761-4.381
						c-1.388-0.983-3.144-0.115-3.935,1.194c-2.207,3.651,0.121,9.632,3.047,12.235c3.16,2.812,7.711,2.638,10.379-0.73
						c1.965-2.48,3.831-9.671-0.277-11.185c-4.18-1.541-4.541,4.94-3.754,7.36c1.285,3.951,5.012,6.609,9.197,6.179
						c3.942-0.405,6.952-3.443,7.28-7.395c0.153-1.846-0.334-4.322-1.869-5.535c-1.583-1.25-3.102,0.043-3.402,1.721
						c-0.87,4.857,3.417,8.975,8.033,9.115c0.983,0.03,0.982-1.497,0-1.526c-3.039-0.092-5.713-2.073-6.411-5.091
						c-0.147-0.636-0.216-1.309-0.149-1.96c0.07-0.68-0.052-0.665,0.762-0.61c0.85,0.057,0.523-0.055,0.862,0.409
						c0.779,1.067,0.792,2.878,0.559,4.11c-1.11,5.858-8.956,6.994-12.283,2.355c-1.264-1.762-2.402-5.267-0.795-7.173
						c0.694-0.823,1.875-0.567,2.385,0.358c0.434,0.789,0.415,1.842,0.377,2.716c-0.066,1.551-0.406,3.167-1.225,4.507
						c-1.603,2.624-4.654,3.662-7.411,2.131c-2.53-1.405-3.945-4.418-4.431-7.169c-0.173-0.979-0.249-2.02,0.016-2.992
						c0.074-0.274,0.163-0.528,0.292-0.782c0.236-0.464,1.002-1.343,1.653-1.112c1.555,0.551,0.163,3.635-0.26,4.468
						c-1.301,2.567-3.596,4.487-6.328,5.362C305.336,103.857,305.734,105.332,306.673,105.031L306.673,105.031z"/>
				</g>
			</g>
		</g>
	</g>
</g>
<g id="Speech_Bubble_1">
	<g>
		<g>
			<path style="fill:#8380FF;" d="M156.127,75.634c-4.695-5.686-12.593-8.712-20.236-8.245l0.051-0.011
				c-5.572,0.001-12.705,1.859-16.438,5.783c-3.733,3.924-5.751,9.173-5.894,14.41c-0.211,7.696,3.911,15.35,10.494,19.757
				c-1.143,2.128-2.83,3.965-4.877,5.251c3.419,0.519,7.026-0.575,9.641-2.825c0.085,0.031,0.165,0.071,0.25,0.101
				c9.452,3.351,21.147,0.082,27.215-7.606C162.401,94.561,162.312,83.124,156.127,75.634z"/>
		</g>
		<path style="fill:#A0D2F4;" d="M130.435,74.165c-0.721,0.277-1.218,0.93-1.299,1.698c-0.435,4.1-0.645,17.577,0.72,18.374
			c1.619,0.946,10.066-2.48,10.066-2.48s-2.599,14.004-1.577,14.118c1.442,0.161,11.6-15.269,10.573-19.584
			c-1.027-4.315-11.396-1.273-11.396-1.273s4.071-11.528,2.339-11.918C137.347,72.534,132.37,73.42,130.435,74.165z"/>
		<g>
			<path style="fill:#A0D2F4;" d="M122.882,94.796c0.243-0.271,0.505-0.519,0.761-0.777c0.284-0.285,0.514-0.616,0.757-0.935
				c0.27-0.355,0.091-0.927-0.234-1.17c-0.365-0.273-0.856-0.247-1.191,0.071c-0.251,0.238-0.498,0.468-0.714,0.739
				c-0.215,0.27-0.423,0.542-0.653,0.8c-0.324,0.362-0.357,0.916,0,1.273C121.939,95.126,122.557,95.16,122.882,94.796
				L122.882,94.796z"/>
		</g>
		<g>
			<path style="fill:#A0D2F4;" d="M120.833,89.786c0.708,0.187,1.386,0.397,2.12,0.428c0.916,0.039,1.029-1.282,0.209-1.547
				c-0.689-0.223-1.416-0.247-2.135-0.318C120.195,88.269,120.051,89.58,120.833,89.786L120.833,89.786z"/>
		</g>
		<g>
			<path style="fill:#A0D2F4;" d="M122.215,85.997c0.348,0.399,0.685,0.808,1.034,1.206c0.397,0.453,1.149,0.34,1.49-0.101
				c0.373-0.483,0.224-1.143-0.28-1.467c-0.438-0.282-0.884-0.551-1.324-0.831c-0.32-0.204-0.758-0.091-0.98,0.196
				C121.916,85.311,121.964,85.708,122.215,85.997L122.215,85.997z"/>
		</g>
		<g>
			<path style="fill:#A0D2F4;" d="M151.119,83.718c0.084-0.07,0.167-0.14,0.252-0.208c-0.106,0.062-0.212,0.123-0.318,0.185
				c0.215-0.089,0.451-0.161,0.642-0.293c0.208-0.144,0.404-0.304,0.604-0.459c0.174-0.135,0.272-0.448,0.272-0.656
				c0-0.228-0.101-0.499-0.272-0.656c-0.359-0.33-0.96-0.38-1.313,0c-0.173,0.187-0.344,0.373-0.499,0.575
				c-0.08,0.103-0.131,0.215-0.193,0.329c-0.057,0.105,0.052-0.05-0.026,0.046c-0.042,0.051-0.097,0.097-0.144,0.144
				c-0.26,0.26-0.28,0.738,0,0.994C150.426,83.995,150.817,83.971,151.119,83.718L151.119,83.718z"/>
		</g>
		<g>
			<path style="fill:#A0D2F4;" d="M151.651,86.684c0.192,0.088,0.358,0.159,0.575,0.151c0.153-0.006,0.312-0.046,0.463-0.074
				c0.221-0.04,0.425-0.111,0.637-0.185c0.447-0.155,0.791-0.628,0.633-1.116c-0.139-0.43-0.641-0.815-1.116-0.634
				c-0.508,0.195-1.186,0.404-1.435,0.934C151.266,86.064,151.296,86.521,151.651,86.684L151.651,86.684z"/>
		</g>
		<g>
			<path style="fill:#A0D2F4;" d="M150.93,90.498c0.509,0.419,0.975,0.884,1.481,1.307c0.382,0.32,0.923,0.337,1.249-0.085
				c0.326-0.423,0.17-0.935-0.235-1.229c-0.533-0.388-1.096-0.727-1.626-1.119C151.15,88.891,150.302,89.98,150.93,90.498
				L150.93,90.498z"/>
		</g>
	</g>
</g>
<g id="Character_2">
	<g>
		<path style="fill:#421B36;" d="M203.645,153.863c1.029-3.466,3.559-6.385,6.657-8.248c-1.467-0.024-2.751-1.191-3.229-2.579
			c-0.477-1.388-0.265-2.932,0.241-4.31c2.521-6.86,11.118-9.428,15.084-15.568c2.786-4.313,3.086-10.11,6.712-13.745
			c2.44-2.447,6.083-3.464,9.527-3.177c3.444,0.286,8.861,1.223,10.925,6.786l-1.568,9.39c-5.064,7.36-8.44,15.874-9.796,24.705
			c-0.678,4.413-0.9,9.039-3.01,12.973c-1.878,3.499-5.163,6.15-8.872,7.568c-3.709,1.418-7.813,1.65-11.731,1.001
			c-3.408-0.564-6.859-1.889-9.061-4.55C203.217,161.324,202.616,157.329,203.645,153.863z"/>
		<path style="fill:#FFAE7A;" d="M276.83,165.383c0,0,6.819,1.758,9.866,14.008c3.047,12.25,4.587,58.069,4.587,58.069
			s10.986,31.396,9.294,43.402c-1.693,12.005-4.063,22.5-4.063,22.5l-10.156-2.708l-15.534-74.932L276.83,165.383z"/>
		<g>
			<path style="fill:#FFAE7A;" d="M190.768,278.514c0,0-8.837,22.013-8.712,27.187s0.828,9.4,2.696,11.457
				c1.869,2.058,3.51,2.571,4.466,0.985c0.956-1.586-0.528-2.783-1.506-4.82c-0.978-2.037-1.461-5.542-1.461-5.542
				s2.55,5.026,5.216,6.63c2.666,1.604,3.648,2.772,4.665,0.224c0,0,3.494,0.445,3.093-2.766c0,0,1.938,0.013,2.319-1.615
				c0.498-2.125-0.234-2.706-1.709-5.642c-1.475-2.935-2.606-4.933-0.357-8.665c2.249-3.732,1.384-7.662-0.162-10.263l3.082-9.187
				C202.4,276.497,196.932,266.993,190.768,278.514z"/>
		</g>
		<g>
			<path style="fill:#421B36;" d="M245.626,272.597c2.96,2.215,5.131,5.326,8.094,7.544c0.258,0.193,0.659,0.04,0.81-0.212
				c0.18-0.301,0.042-0.62-0.212-0.81c-2.96-2.215-5.131-5.326-8.094-7.544c-0.258-0.193-0.659-0.04-0.81,0.212
				C245.234,272.087,245.371,272.406,245.626,272.597L245.626,272.597z"/>
		</g>
		<path style="fill:#FFAE7A;" d="M262.762,440.526c0,0-6.757,3.592-10.131,1.744c-3.374-1.848-6.947-23.863-12.254-37.065
			c-5.307-13.201-8.975-48.958-8.975-48.958c-11.581-17.627-12.548-51.688-12.548-72.944c0-21.247,9.742-40.258,11.192-41.215
			l14.594,3.374l14.5,3.345c0,0-0.474,22.422-0.824,46.702c-0.379,26.545-0.607,55.308,0.104,59.43
			c1.715,9.932,2.474,9.201,4.407,23.549C264.752,392.828,262.762,440.526,262.762,440.526z"/>
		<path style="fill:#FFAE7A;" d="M259.411,282.462c0,1.692,2.965,38.577,9.752,62.493c4.547,16.023,16.346,22.319,22.668,19.445
			c14.489-6.586,12.736-20.976,11.075-36.587c-1.302-12.235-5.558-37.203-7.339-47.432c-0.52-2.985-1.294-5.917-2.316-8.769
			l-6.869-19.156l-20.816,19.629L259.411,282.462z"/>
		<g>
			<path style="fill:#FFAE7A;" d="M284.169,181.018l-1.675,25.39c0,0-2.892,22.259-3.775,25.304
				c-0.947,3.267-34.363,9.848-40.569,6.265c-6.205-3.582-8.432-40.914-9.328-49.451c-1.33-12.668,3.787-22.685,3.787-22.685
				s7.699-2.432,15.297-2.914c12.663-0.804,28.469,0.418,31.346,4.073C284.281,173.389,284.169,181.018,284.169,181.018z"/>
		</g>
		<path style="fill:#8380FF;" d="M228.516,244.357l5.607-14.718h43.989c0,0,11.223,24.85,13.134,34.806
			c1.345,7.009-33.844,16.416-33.844,16.416L228.516,244.357z"/>
		<path style="fill:#421B36;" d="M277.329,111.034c3.737,0.762,7.311,2.856,9.277,6.124c1.965,3.268,2.038,7.752-0.312,10.755
			c-0.459,0.587-1.014,1.141-1.206,1.861c-0.195,0.736,0.025,1.509,0.174,2.256c0.59,2.966-0.011,6.152-1.641,8.699l-17.618-29.063
			C269.699,110.724,273.592,110.272,277.329,111.034z"/>
		<g>
			<path style="fill:#FFAE7A;" d="M252.2,118.235c8.671-10.2,25.475-7.356,30.343,5.116c1.539,3.944,1.928,9.039,1.222,15.739
				c-1.972,18.693-17.82,17.366-17.82,17.366l-2.58,12.12l-5.631,2.317l-9.025-8.239l0.876-14.626c0,0-1.948-15.908-0.033-24.64
				C249.977,121.446,250.931,119.729,252.2,118.235z"/>
			<path style="fill:#421B36;" d="M277.426,128.45c-0.045,0.688-0.583,1.212-1.203,1.172c-0.62-0.04-1.086-0.63-1.041-1.318
				c0.045-0.688,0.583-1.212,1.203-1.172S277.471,127.762,277.426,128.45z"/>
			<path style="fill:#421B36;" d="M265.878,128.055c-0.045,0.688-0.583,1.212-1.203,1.172c-0.62-0.04-1.086-0.63-1.041-1.318
				c0.045-0.688,0.583-1.212,1.203-1.172C265.457,126.778,265.923,127.368,265.878,128.055z"/>
			<g>
				<path style="fill:#421B36;" d="M258.609,120.632c1.167-0.59,2.688-0.86,3.991-0.881c1.288-0.021,2.407,0.418,3.647,0.639
					c0.696,0.124,1.088-0.734,0.483-1.145c-2.574-1.747-6.121-0.756-8.483,0.765C257.855,120.262,258.196,120.841,258.609,120.632
					L258.609,120.632z"/>
			</g>
			<g>
				<path style="fill:#421B36;" d="M257.552,153.186c2.863,2.735,6.591,3.897,10.505,3.956c0.734,0.011,0.729-1.107,0-1.137
					c-3.711-0.156-7.11-1.311-10.44-2.902C257.565,153.077,257.506,153.141,257.552,153.186L257.552,153.186z"/>
			</g>
			<path style="opacity:0.3;fill:#421B36;" d="M265.712,133.769c-0.066,1.019-1.716,1.742-3.684,1.614
				c-1.969-0.128-3.511-1.058-3.444-2.077c0.066-1.019,1.716-1.742,3.684-1.614C264.236,131.82,265.778,132.75,265.712,133.769z"/>
			<path style="opacity:0.3;fill:#421B36;" d="M283.258,134.909c-0.066,1.019-1.716,1.742-3.684,1.614
				c-1.969-0.128-3.511-1.058-3.444-2.077c0.066-1.019,1.716-1.742,3.684-1.614C281.782,132.96,283.324,133.89,283.258,134.909z"/>
			<g>
				<path style="fill:#421B36;" d="M269.001,112.24c1.733-1.115,3.166-2.441,5.211-3.01c2.578-0.717,4.872-0.16,7.345,0.653
					c0.49,0.161,0.743-0.542,0.339-0.804c-3.889-2.524-11.032-1.604-13.005,3.051C268.864,112.197,268.926,112.288,269.001,112.24
					L269.001,112.24z"/>
			</g>
			<g>
				<path style="fill:#421B36;" d="M277.94,103.206c-5.307-0.233-9.496,3.104-10.778,8.24c-0.177,0.71,0.919,1.013,1.097,0.302
					c1.136-4.552,5.028-7.788,9.682-8.312C278.085,103.421,278.092,103.213,277.94,103.206L277.94,103.206z"/>
			</g>
			<g>
				<path style="fill:#421B36;" d="M278.585,120.953c-1.932-2.465-5.626-2.24-7.301,0.329c-2.38,3.65-0.966,9.813,1.073,13.288
					c0.364,0.62,1.48,0.208,1.202-0.507c-1.049-2.689-2.11-5.369-2.075-8.316c0.025-2.024,0.42-4.103,2.43-4.925
					c1.375-0.563,3.049-0.216,4.337,0.564C278.539,121.56,278.766,121.184,278.585,120.953L278.585,120.953z"/>
			</g>
		</g>
		<path style="fill:#8380FF;" d="M251.657,114.191c-0.306-1.13-2.432-2.286-3.572-2.02c-1.14,0.266-3.391,3.266-3.975,4.281
			c-0.507,0.881-0.839,1.891-0.761,2.904c0.078,1.013,0.614,2.021,1.507,2.504c1.724-1.849,3.305-3.832,4.724-5.924"/>
		<path style="fill:#421B36;" d="M248.668,115.737c4.443-3.77,10.482-5.558,16.275-4.927c0.895,0.097,4.427,0.016,4.57,0.904
			c-2.055,5.559-8.758,11.309-14.323,13.35c-0.452,0.166-0.945,0.342-1.203,0.749c-0.289,0.455-0.19,1.043-0.099,1.575
			c1.147,6.714,0.137,13.97-4.373,19.073c-4.509-3.691-8.194-9.584-8.121-15.41C241.467,125.225,244.225,119.507,248.668,115.737z"
			/>
		<path style="fill:#FFAE7A;" d="M245.656,130.288c-1.019-0.594-2.365-0.444-3.355,0.196c-0.99,0.641-1.65,1.704-2.006,2.828
			c-0.593,1.868-0.361,4.051,0.867,5.578s3.511,2.214,5.274,1.356"/>
		<g>
			<path style="fill:#421B36;" d="M242.032,135.862c0.487-0.373,1.463-0.595,2.064-0.594c0.833,0.001,1.379,0.411,1.937,0.978
				c0.445,0.452,1.25-0.137,0.893-0.689c-0.578-0.892-1.639-1.435-2.701-1.438c-0.513-0.002-1.068,0.14-1.5,0.421
				c-0.476,0.308-0.588,0.704-0.845,1.171C241.831,135.799,241.938,135.934,242.032,135.862L242.032,135.862z"/>
		</g>
		<path style="fill:#421B36;" d="M272.981,140.319c-0.676,1.246-1.472,2.591-2.813,3.05c-1.466,0.503-3.139-0.293-4.069-1.533
			c-0.931-1.239-1.26-2.824-1.43-4.365c-0.069-0.618-0.073-1.346,0.41-1.738c0.539-0.438,1.338-0.188,1.968,0.104
			c1.999,0.928,3.88,2.109,5.584,3.505"/>
		<path style="fill:#8380FF;" d="M232.035,218.904c0,0,48.325-0.058,48.392-0.771c0.067-0.713,1.681-8.639,1.681-8.639
			s2.419-14.245,1.152-22.434c-1.537-9.932-11.679-23.134-11.679-23.134l-5.11-0.718c0,0,4.215,6.106,0.688,7.796
			c-3.527,1.69-13.808,1.664-16.438-0.832c-1.361-1.291-5.794-6.998-5.794-6.998s-9.952,1.423-10.816,2.229
			c-1.208,1.128,3.613,19.964,3.613,19.964s-6.017,17.295-7.647,17.415C228.446,202.902,231.822,217.549,232.035,218.904z"/>
		<path style="fill:#FFAE7A;" d="M234.231,165.564c0,0-12.086,1.122-15.833,11.353c-3.747,10.231-12.16,43.457-16.061,51.122
			c-3.91,7.681-9.371,34.363-12.349,52.263l9.555,2.972c0.019,0.695,16.605-39.035,21.41-50.012
			c3.759-8.588,6.297-28.728,9.124-31.977c0,0,2.126,0.446,5.553-6.47C239.056,187.9,239.828,165.263,234.231,165.564z"/>
		<path style="fill:#8380FF;" d="M258.39,337.043c-11.389,3.946-22.824,4.582-34.303,1.988c-6.313-19.387-7.541-31.738-7.541-52.995
			c0-21.247,12.051-42.991,13.501-43.948l14.594,3.374l16.449,16.723l-2.774,33.325L258.39,337.043z"/>
		<path style="fill:#8380FF;" d="M259.114,284.076c0.197,0.645,4.712,43.692,6.1,42.725c11.721-8.161,36.587-6.678,36.587-6.678
			c-0.089-2.216-4.137-52.783-17.681-69.236C270.577,234.435,256.64,275.98,259.114,284.076z"/>
		<g>
			<path style="fill:#421B36;" d="M260.141,286.8c4.09-9.067,12.106-16.191,20.453-21.291c0.582-0.355,0.071-1.214-0.531-0.909
				c-8.881,4.504-17.431,12.268-20.433,21.984C259.538,286.881,260.009,287.093,260.141,286.8L260.141,286.8z"/>
		</g>
		<g>
			<path style="fill:#421B36;" d="M259.107,286.659c-0.225-4.128-4.799-8.137-7.833-10.508c-3.546-2.771-7.818-5.238-12.261-6.174
				c-0.939-0.198-1.258,1.072-0.39,1.414c4.126,1.625,8.025,3.268,11.571,5.992c1.837,1.411,3.496,2.977,4.948,4.784
				c1.226,1.526,2.051,3.369,3.486,4.689C258.797,287.011,259.12,286.913,259.107,286.659L259.107,286.659z"/>
		</g>
		<g>
			<path style="fill:#421B36;" d="M279.074,231.674c1.504-10.463,3.008-20.926,4.512-31.389c0.107-0.746-1.034-1.068-1.142-0.315
				c-1.504,10.463-3.008,20.926-4.512,31.389C277.825,232.104,278.966,232.426,279.074,231.674L279.074,231.674z"/>
		</g>
		<g>
			<path style="fill:#421B36;" d="M227.943,209.952c2.077-7.165,4.155-14.331,6.233-21.496c0.213-0.734-0.93-1.047-1.142-0.315
				c-2.077,7.165-4.155,14.331-6.233,21.496C226.588,210.371,227.731,210.684,227.943,209.952L227.943,209.952z"/>
		</g>
		<g>
			<path style="fill:#A0D2F4;" d="M233.936,235.801c-9.456,16.708-14.576,35.758-14.907,54.948
				c-0.139,8.042,0.664,15.992,2.109,23.895c0.776,4.245,1.544,8.491,2.316,12.736c0.743,4.087,1.486,8.173,2.23,12.26
				c0.136,0.749,1.278,0.432,1.142-0.315c-1.453-7.992-2.907-15.983-4.36-23.975c-1.225-6.736-2.111-13.47-2.247-20.327
				c-0.191-9.585,0.821-19.187,3.004-28.522c2.464-10.534,6.406-20.687,11.735-30.102
				C235.335,235.734,234.312,235.137,233.936,235.801L233.936,235.801z"/>
		</g>
		<g>
			<path style="fill:#421B36;" d="M222.233,315.01c0.12,0,0.12-0.187,0-0.187C222.112,314.824,222.112,315.01,222.233,315.01
				L222.233,315.01z"/>
		</g>
		<g>
			<path style="fill:#421B36;" d="M188.397,294.074c-0.311,2.565-0.259,5.148,0.146,7.7c0.212,1.331,0.522,2.647,0.932,3.932
				c0.311,0.975,0.703,2.017,1.692,2.481c0.835,0.392,1.817,0.221,2.363-0.554c0.576-0.817,0.531-1.924,0.549-2.876
				c0.052-2.745-0.154-5.484-0.57-8.197c-0.115-0.751-1.257-0.432-1.142,0.315c0.34,2.215,0.52,4.451,0.535,6.692
				c0.006,0.915,0.089,1.934-0.118,2.833c-0.266,1.156-1.325,0.881-1.792-0.019c-0.462-0.89-0.685-1.971-0.915-2.941
				c-0.24-1.013-0.424-2.041-0.539-3.075c-0.233-2.093-0.21-4.203,0.044-6.292C189.674,293.319,188.488,293.325,188.397,294.074
				L188.397,294.074z"/>
		</g>
		<g>
			<path style="fill:#421B36;" d="M193.731,297.576c1.663-0.744,3.088-1.994,4.046-3.543c0.163-0.264,0.065-0.664-0.213-0.81
				c-0.29-0.153-0.636-0.069-0.81,0.212c-0.233,0.377-0.436,0.655-0.687,0.947c-0.27,0.313-0.562,0.607-0.874,0.878
				c-0.076,0.066-0.154,0.131-0.233,0.195c-0.039,0.032-0.079,0.064-0.119,0.095c0.064-0.049-0.038,0.028-0.049,0.036
				c-0.171,0.127-0.347,0.248-0.527,0.362c-0.362,0.23-0.741,0.431-1.132,0.606c-0.292,0.131-0.362,0.556-0.212,0.81
				C193.097,297.664,193.438,297.707,193.731,297.576L193.731,297.576z"/>
		</g>
		<g>
			<path style="fill:#421B36;" d="M191.512,308.974c0.916,2.05,2.261,3.901,3.906,5.427c0.558,0.518,1.398-0.318,0.838-0.838
				c-1.579-1.465-2.841-3.22-3.721-5.188c-0.131-0.292-0.556-0.361-0.81-0.212C191.424,308.34,191.381,308.681,191.512,308.974
				L191.512,308.974z"/>
		</g>
		<g>
			<path style="fill:#421B36;" d="M193.425,305.649c1.621,2.068,3.43,3.981,5.4,5.72c0.24,0.212,0.602,0.236,0.838,0
				c0.216-0.216,0.241-0.625,0-0.838c-1.97-1.738-3.779-3.652-5.4-5.72c-0.197-0.252-0.631-0.207-0.838,0
				C193.177,305.06,193.227,305.397,193.425,305.649L193.425,305.649z"/>
		</g>
		<g>
			<path style="fill:#421B36;" d="M254.862,210.519c5.752-3.157,10.201-8.321,13.406-13.969c0.297-0.523-0.496-0.985-0.806-0.471
				c-3.384,5.617-7.878,9.918-12.964,13.969C254.225,210.266,254.574,210.677,254.862,210.519L254.862,210.519z"/>
		</g>
		<g>
			<path style="fill:#421B36;" d="M261.11,210.471c2.701-2.171,5.425-4.316,8.077-6.546c0.489-0.411-0.211-1.094-0.697-0.697
				c-2.678,2.187-5.287,4.46-7.917,6.706C260.197,210.254,260.735,210.772,261.11,210.471L261.11,210.471z"/>
		</g>
		<g>
			<path style="fill:#A0D2F4;" d="M231.273,202.818c0.605,5.38,2.211,10.854,3.722,16.04c0.2,0.687,1.236,0.401,1.071-0.295
				c-1.248-5.254-2.556-10.801-4.685-15.774C231.359,202.737,231.267,202.763,231.273,202.818L231.273,202.818z"/>
		</g>
		<g>
			<path style="fill:#421B36;" d="M232.331,236.603c15.819,0.686,31.662,0.681,47.48-0.015c0.759-0.033,0.763-1.218,0-1.185
				c-15.818,0.696-31.661,0.701-47.48,0.015C231.569,235.386,231.571,236.57,232.331,236.603L232.331,236.603z"/>
		</g>
		<g>
			<g>
				<g>
					<path style="fill:#8380FF;" d="M236.199,458.581c0.741-0.537,1.68-0.866,2.427-1.532c3.404-3.034,6.506-7.551,7.99-11.72
						c1.809-5.085-5.87-38.367-6.351-38.846c5.476-1.725,14.328-1.07,23.77,0c0.631,0.335-1.343,36.329-1.309,41.587
						c0.037,5.707,5.606,19.541,3.889,22.996c-1.717,3.455-26.646,8.069-36.02,8.904c-14.562,1.298-19.764-4.889-19.858-6.759
						C210.672,471.928,232.085,461.562,236.199,458.581z"/>
					<path style="fill:#8380FF;" d="M211.007,472.777c0.441-0.368,0.879-0.652,1.682-1.156c0,0-0.036-0.096,0,0
						c0.308,0.188,9.637,5.588,25.614,4.709c16.248-0.896,28.458-10.128,28.458-10.128c0.303,2.152,0.362,4-0.114,4.952
						c-0.054,0.109-0.132,0.216-0.227,0.324c-0.193,0.223-0.477,0.449-0.837,0.676c-5.195,3.284-26.465,7.15-34.959,7.907
						c-11.197,1-16.736-2.396-18.869-4.875C210.686,473.876,210.552,473.157,211.007,472.777z"/>
				</g>
				<path style="fill:#421B36;" d="M216.389,469.568l19.81-10.987c2.018-1.181,4.054-3.301,6.097-5.869c0,0-0.187-0.136,0,0
					c2.174-5.534,6.993-6.139,9.529-2.999c1.685,2.086,1.931,5.409,1.877,7.615c0.238,0.011,0.475,0.027,0.714,0.023
					c6.094-0.092,9.493-3.767,9.493-3.767c1.243,4.772,2.371,9.322,2.852,12.618c0,0-12.164,9.414-28.413,10.312
					c-16.248,0.898-25.66-4.893-25.66-4.893L216.389,469.568z"/>
			</g>
			<g>
				<path style="fill:#FFFFFF;" d="M231.641,461.366c0.565,0.806,1.44,1.347,2.158,2.015c0.8,0.743,1.406,1.746,2.232,2.431
					c0.694,0.576,1.649-0.128,1.245-0.961c-0.49-1.012-1.621-1.818-2.518-2.459c-0.859-0.614-1.907-1.273-2.992-1.247
					C231.664,461.148,231.574,461.271,231.641,461.366L231.641,461.366z"/>
			</g>
			<g>
				<path style="fill:#FFFFFF;" d="M235.545,459.093c0.405,0.778,1.444,1.286,2.086,1.861c0.765,0.685,1.354,1.561,2.171,2.176
					c0.656,0.494,1.569-0.322,1.351-1.038c-0.356-1.171-1.464-2.09-2.476-2.713c-0.828-0.51-2.061-1.103-3.026-0.687
					C235.499,458.756,235.479,458.966,235.545,459.093L235.545,459.093z"/>
			</g>
			<g>
				<path style="fill:#FFFFFF;" d="M238.709,456.551c0.697,0.554,1.68,0.77,2.489,1.133c0.954,0.428,1.729,1.273,2.705,1.583
					c0.723,0.23,1.193-0.59,0.91-1.185c-0.781-1.641-4.465-2.952-6.056-1.909C238.642,456.25,238.581,456.449,238.709,456.551
					L238.709,456.551z"/>
			</g>
			<g>
				<path style="fill:#A0D2F4;" d="M224.863,464.939c6.448,12.169,21.628-3.542,28.287-6.53c0.936-0.42,0.125-1.803-0.807-1.381
					c-8.177,3.706-17.766,16.607-26.8,7.386C225.191,464.055,224.636,464.511,224.863,464.939L224.863,464.939z"/>
			</g>
			<path style="fill:#FFFFFF;" d="M238.031,476.608c0,0,6.629-2.401,7.365-6.075c0.736-3.674-1.279-6.512-1.279-6.512l2.435-1.809
				c0,0,2.6,6.959,3.651,6.716c1.051-0.243,6.028-6.674,8.647-8.289c2.619-1.615,6.816,0,6.816,0c0.419,1.59,0.76,3.152,0.932,4.535
				c0,0-3.648-1.005-5.54,0.077c-1.892,1.082-7.521,7.966-7.521,7.966S244.539,476.628,238.031,476.608z"/>
			<path style="fill:#FFFFFF;" d="M264.107,411.656c-7.294-1.405-15.303-1.798-22.653-0.727l0.767,3.329
				c0,0,17.583,0.007,21.735,1.024L264.107,411.656z"/>
			<path style="fill:#FFFFFF;" d="M263.932,417.605c-4.894-0.814-13.807-1.285-21.159-0.844l0.712,3.361
				c0,0,16.184-0.103,20.335,0.915L263.932,417.605z"/>
		</g>
		<path style="fill:#421B36;" d="M211.254,185.418c0.346-0.346,8.619-1.707,10.217,1.237c1.598,2.945-3.188,21.943-5.508,22.902
			c-2.32,0.959-10.305-0.194-10.397-2.327C205.376,202.796,209.243,187.429,211.254,185.418z"/>
		<path style="fill:#421B36;" d="M212.907,191.039c0,0,17.422,3.135,18.424,4.468c1.002,1.333-3.569,12.189-3.569,12.189
			l-13.779-3.238l-1.552-13.419"/>
		<g>
			<path style="fill:#8380FF;" d="M218.897,206.311c1.746-4.549,3.015-9.263,3.79-14.074c0.12-0.746-1.021-1.067-1.142-0.315
				c-0.775,4.811-2.045,9.524-3.79,14.074C217.482,206.708,218.627,207.017,218.897,206.311L218.897,206.311z"/>
		</g>
		<g>
			<path style="fill:#421B36;" d="M247.322,111.464c-1.612-5.396-7.287-8.579-12.788-7.786c-8.644,1.246-9.839,8.508-12.053,15.486
				c-1.262,3.976-3.221,5.853-7.175,7.302c-1.689,0.619-3.36,0.984-4.919,1.901c-2.783,1.637-5.073,4.236-6.336,7.208
				c-2.491,5.863-0.831,12.549,3.728,16.858c0.68,0.643,1.653-0.337,1.024-1.024c-4.975-5.44-5.985-13.702-0.581-19.311
				c3.844-3.99,10.135-3.379,13.509-7.726c3.269-4.212,2.376-10.158,5.376-14.482c5.481-7.902,15.096-4.89,19.882,1.715
				C247.103,111.761,247.385,111.675,247.322,111.464L247.322,111.464z"/>
		</g>
		<g>
			<path style="fill:#421B36;" d="M270.268,201.972c0.497,0,0.498-0.773,0-0.773C269.771,201.199,269.77,201.972,270.268,201.972
				L270.268,201.972z"/>
		</g>
		<g>
			<path style="fill:#421B36;" d="M236.853,358.623c1.63,0.419,3.175,1.051,4.843,1.36c0.865,0.16,1.243-1.103,0.368-1.336
				c-1.647-0.44-3.321-0.535-4.981-0.859C236.543,357.682,236.307,358.483,236.853,358.623L236.853,358.623z"/>
		</g>
		<path style="fill:#A0D2F4;" d="M211.222,187.188c-0.372,0.726-5.5,16.737-4.191,18.591c0.535,0.758,6.866,2.229,7.749,1.11
			c0.967-1.225,5.485-18.229,4.476-19.515C218.247,186.088,211.868,185.925,211.222,187.188z"/>
	</g>
</g>
<g id="Character_3">
	<g>
		<g>
			<path style="fill:#8380FF;" d="M462.943,423.055c-0.182,0.669,1.589,20.835,5.482,29.849c2.778,6.434-13.142,9.24-13.142,9.24
				s-7.533-25.794-10.924-35.702C442.559,421.182,462.943,423.055,462.943,423.055z"/>
			<g>
				<path style="fill:#8380FF;" d="M487.673,472.702c0,0,0.092,2.242-0.267,4.273c-0.359,2.031-7.263,3.366-16.383,3.169
					c-9.12-0.197-14.435-4.275-14.816-4.726c-0.38-0.452-1.44-7.346-1.44-7.346L487.673,472.702z"/>
				<path style="fill:#421B36;" d="M467.805,450.279c0.341,0.255,9.587,12.71,12.53,14.555c2.943,1.846,7.589,4.541,7.343,8.577
					c-0.246,4.036-17.411,3.818-24.121,2.303c-6.71-1.515-6.545-0.697-7.739-2.995c-1.194-2.299-1.731-11.85-1.804-13.147
					C453.941,458.275,457.678,442.687,467.805,450.279z"/>
				<path style="fill:#FFFFFF;" d="M461.397,464.733c0,0-2.604,2.095-1.803,4.499c0.801,2.404,6.304,1.643,6.103,6.872l-5.572-1.109
					c0,0-0.232-3.574-2.034-4.268c-1.803-0.694-2.635,1.017-2.635,1.017l-0.69-5.517l4.427-3.3L461.397,464.733z"/>
				<g>
					<path style="fill:#A0D2F4;" d="M456.174,458.656c2.294,5.794,8.152,9.326,14.366,8.849c1.791-0.138,5.462-0.549,6.353-2.437
						c1.01-2.138-2.315-5.921-3.239-7.497c-0.458-0.781-1.686-0.066-1.215,0.71c0.509,0.838,1.017,1.675,1.517,2.518
						c0.949,1.6,1.735,1.99,0.754,3.553c-1.363,2.171-5.421,1.96-7.678,1.557c-4.505-0.806-7.86-3.75-10.258-7.506
						C456.585,458.106,456.03,458.294,456.174,458.656L456.174,458.656z"/>
				</g>
				<g>
					<path style="fill:#FFFFFF;" d="M466.714,464.783c1.07-0.295,2.075-0.703,3.18-0.865c1.231-0.18,2.354-0.069,3.577,0.085
						c0.981,0.124,1.039-1.333,0.22-1.627c-2.369-0.852-5.841-0.049-7.045,2.319C466.624,464.741,466.662,464.797,466.714,464.783
						L466.714,464.783z"/>
				</g>
				<g>
					<path style="fill:#FFFFFF;" d="M460.415,458.17c2.594-0.683,4.878-1.296,7.59-1.135c0.781,0.047,0.971-1.237,0.187-1.382
						c-2.764-0.511-6.024,0.097-7.879,2.341C460.249,458.072,460.307,458.198,460.415,458.17L460.415,458.17z"/>
				</g>
				<g>
					<path style="fill:#FFFFFF;" d="M463.538,461.939c1.047-0.22,1.964-0.866,3.009-1.143c1.259-0.333,2.495-0.299,3.768-0.08
						c0.8,0.137,1.077-0.905,0.332-1.204c-2.168-0.871-6.514-0.469-7.312,2.225C463.299,461.863,463.42,461.964,463.538,461.939
						L463.538,461.939z"/>
				</g>
			</g>
		</g>
		<path style="fill:#421B36;" d="M308.991,201.281c0,0-3.031-0.991-2.686-2.197c0.345-1.206,6.934-4.609,7.667-4.221
			c0.732,0.388,1.034,2.466,1.034,2.466L308.991,201.281z"/>
		<path style="fill:#421B36;" d="M419.83,108.546c-1.492-1.275-4.075-1.299-5.236,0.283c1.053-3.373,1.09-7.16-0.444-10.344
			c-1.534-3.184-4.792-5.618-8.326-5.651c-3.534-0.034-7.042,2.683-7.421,6.197c-2.157-1.48-5.462-0.878-6.958,1.268
			c-1.496,2.146-0.919,5.455,1.215,6.967l13.4,13.957c2.847,2.009,6.783,2.357,9.937,0.879c3.155-1.478,5.406-4.726,5.684-8.199
			C421.838,111.948,421.322,109.82,419.83,108.546z"/>
		<g>
			<path style="fill:#8380FF;" d="M395.956,112.706c1.309,0.002,2.493-1.011,2.729-2.152c0.235-1.141-0.366-2.313-1.346-3.049
				c-0.98-0.736-2.289-1.076-3.592-1.149c-1.75-0.099-3.749,0.385-4.648,1.739c-0.409,0.616-0.526,1.423-0.096,2.003
				c0.376,0.508,1.072,0.741,1.724,0.944c1.576,0.492,3.152,0.984,4.728,1.476"/>
		</g>
		<path style="fill:#421B36;" d="M382.65,109.525c8.767-3.066,16.355,1.902,19.063,3.914c2.708,2.012,4.552,5.149,4.992,8.494
			c3.845-2.866,9.625-2.768,13.371,0.227c3.746,2.994,5.114,8.611,3.166,12.993c4.61-3.324,11.417-3.251,15.894,0.252
			c4.476,3.503,6.172,10.172,3.823,15.348c-2.349,5.176-8.569,8.295-14.1,6.986c0.212,5.189-3.62,10.259-8.669,11.472
			c-5.049,1.213-10.766-1.565-12.933-6.284c-2.129,3.935-7.033,5.957-11.444,5.211c-4.411-0.746-8.194-3.949-10.215-7.941
			c-2.021-3.991-2.41-8.674-1.706-13.092"/>
		<path style="fill:#421B36;" d="M383.471,110.671c-2.611-4.029-7.028-6.929-11.809-7.361c-4.781-0.432-9.799,1.758-12.449,5.762
			c-2.65,4.003-2.628,9.697,0.322,13.484c-4.201-1.867-9.63-0.329-12.228,3.463c-2.598,3.792-2.072,9.411,1.186,12.654
			c-3.105-0.38-6.188,1.12-8.508,3.219c-3.715,3.362-5.896,8.463-5.393,13.448c0.503,4.985,3.825,9.674,8.499,11.479
			c4.674,1.805,10.487,0.432,13.604-3.49c-0.379,2.693,1.452,5.413,3.956,6.474c2.504,1.062,5.478,0.627,7.841-0.718
			c2.363-1.346,4.171-3.51,5.537-5.863c1.224,3.71,6.042,5.365,9.701,3.994c3.658-1.371,6.085-5.009,7.037-8.798
			c0.951-3.789,0.66-7.765,0.363-11.66"/>
		<g>
			<g>
				<g>
					<path style="fill:#8380FF;" d="M351.275,459.66c0.731-0.53,1.657-0.854,2.394-1.512c3.358-2.993,6.418-7.449,7.882-11.562
						c1.785-5.016-5.791-37.85-6.265-38.321c5.402-1.702,11.77-1.314,21.084-0.258c-0.006,9.009,1.04,36.098,1.074,41.284
						c0.036,5.63,5.53,19.277,3.836,22.686c-1.694,3.408-26.286,7.96-35.534,8.784c-14.366,1.28-19.497-4.823-19.59-6.668
						C326.092,472.828,347.216,462.601,351.275,459.66z"/>
					<path style="fill:#8380FF;" d="M326.423,473.665c0.435-0.363,0.867-0.643,1.659-1.141c0,0-0.035-0.094,0,0
						c0.304,0.185,9.507,5.512,25.269,4.645c16.029-0.884,28.074-9.991,28.074-9.991c0.298,2.123,0.357,3.946-0.112,4.885
						c-0.053,0.107-0.13,0.213-0.224,0.32c-0.19,0.22-0.471,0.443-0.825,0.667c-5.125,3.239-26.108,7.053-34.487,7.8
						c-11.046,0.987-16.511-2.364-18.614-4.809C326.106,474.75,325.974,474.04,326.423,473.665z"/>
				</g>
				<path style="fill:#421B36;" d="M331.732,470.499l19.543-10.839c1.991-1.165,3.999-3.257,6.015-5.79c0,0-0.185-0.135,0,0
					c2.145-5.46,6.899-6.056,9.401-2.959c1.663,2.058,1.905,5.336,1.852,7.512c0.235,0.01,0.469,0.026,0.704,0.023
					c6.012-0.091,9.365-3.716,9.365-3.716c1.226,4.707,2.339,9.196,2.813,12.448c0,0-12,9.287-28.029,10.173
					c-16.029,0.886-25.314-4.827-25.314-4.827L331.732,470.499z"/>
			</g>
			<g>
				<path style="fill:#FFFFFF;" d="M346.778,462.408c0.557,0.795,1.42,1.329,2.129,1.988c0.793,0.737,1.394,1.701,2.202,2.398
					c0.672,0.579,1.641-0.137,1.229-0.948c-0.507-0.997-1.59-1.787-2.483-2.426c-0.848-0.606-1.881-1.255-2.952-1.23
					C346.801,462.193,346.712,462.315,346.778,462.408L346.778,462.408z"/>
			</g>
			<g>
				<path style="fill:#FFFFFF;" d="M350.629,460.165c0.4,0.769,1.428,1.263,2.062,1.831c0.754,0.675,1.335,1.539,2.14,2.146
					c0.642,0.484,1.536-0.315,1.323-1.017c-0.351-1.153-1.442-2.059-2.439-2.672c-0.818-0.503-2.029-1.094-2.982-0.683
					C350.585,459.834,350.564,460.041,350.629,460.165L350.629,460.165z"/>
			</g>
			<g>
				<path style="fill:#FFFFFF;" d="M353.751,457.658c0.687,0.546,1.658,0.761,2.457,1.117c0.948,0.421,1.706,1.234,2.667,1.563
					c0.703,0.24,1.187-0.592,0.898-1.169c-0.803-1.602-4.389-2.923-5.974-1.883C353.684,457.361,353.624,457.557,353.751,457.658
					L353.751,457.658z"/>
			</g>
			<g>
				<path style="fill:#A0D2F4;" d="M340.091,465.933c6.361,12.005,21.336-3.494,27.906-6.442c0.923-0.414,0.123-1.779-0.796-1.362
					c-8.067,3.656-17.526,16.383-26.438,7.286C340.415,465.061,339.867,465.511,340.091,465.933L340.091,465.933z"/>
			</g>
			<path style="fill:#FFFFFF;" d="M353.082,477.444c0,0,6.54-2.369,7.265-5.993c0.726-3.624-1.262-6.424-1.262-6.424l2.402-1.784
				c0,0,2.565,6.865,3.602,6.626c1.037-0.239,5.946-6.584,8.53-8.177c2.584-1.593,6.724,0,6.724,0
				c0.413,1.568,0.749,3.109,0.919,4.474c0,0-3.599-0.992-5.466,0.076c-1.867,1.067-7.42,7.859-7.42,7.859
				S359.503,477.465,353.082,477.444z"/>
		</g>
		<path style="fill:#421B36;" d="M371.472,225.391c0,0-25.28,24.912-27.681,45.891c-0.624,5.451-4.063,20.982-3.72,31.68
			c0.248,7.756,1.477,17.315,2.195,23.627c1.709,15.019,6.377,28.985,4.099,39.33c-2.278,10.346,3.652,43.216,8.82,55.081
			c3.817,8.761,6.112,17.041,6.112,17.041l15.947,3.394c0,0,0.631-25.846,1.562-47.621c0.526-12.307-1.006-23.996,0.022-27.894
			c2.848-10.796,10.15-69.638,10.15-69.638s23.453,69.969,29.148,78.871c5.695,8.902,11.391,23.923,13.669,34.494
			c2.278,10.571,17.099,34.728,18.807,35.253c1.709,0.525,15.365-0.858,15.365-4.64c0-1.682-13.669-71.784-15.947-77.904
			c-1.427-3.834-2.887-33.685-3.307-60.119c-0.258-16.222-4.851-29.482-5.666-33.735c-1.901-9.924-18.452-36.587-20.73-39.799
			C418.039,225.492,371.472,225.391,371.472,225.391z"/>
		<path style="fill:#CC8770;" d="M406.402,156.816c-0.961,0.312-25.921,5.68-32.325,9.738c-5.313,3.367-3.501,40.415-4.338,54.706
			c-0.251,4.281,1.688,5.926,1.688,5.926c11.548,9.975,45.922,3.942,45.922,3.942s3.888-0.467,5.602-9.746
			c1.939-10.502,3.154-28.469,3.871-38.266c0.961-13.111-6.61-24.843-10.452-24.843
			C412.527,158.274,406.402,156.816,406.402,156.816z"/>
		<path style="fill:#A0D2F4;" d="M369.883,218.648c0.33,0.896,51.64-0.401,53.29-1.317c1.649-0.916,4.266-31.972,3.052-39.068
			c-0.865-5.059,2.393-14.443-8.187-20.131c-3.675-1.976-11.735-1.583-15.64-1.231c-3.905,0.352-28.076,8.126-30.599,9.757
			c-0.738,0.478-3.152,2.454-3.563,6.199C366.827,185.685,367.686,212.69,369.883,218.648z"/>
		<path style="fill:#CC8770;" d="M349.084,176.532c-0.324,0.971-2.625,24.738-2.271,36.516c0.414,13.789,6.243,29.659,14.248,23.906
			c6.366-4.575,7.716-9.923,8.066-18.016c0.35-8.093-8.887-42.406-8.887-42.406H349.084z"/>
		<path style="fill:#CC8770;" d="M358.916,161.804c0,0,3.154-5.482,3.732-7.426c0.726-2.44-2.088-3.523-5.159-0.734
			c-3.071,2.789-7.738,11.302-8.352,14.678c0,0-1.324,0-2.136,2.349c-0.812,2.348-1.711,3.798,1.195,8.798
			c2.906,5,13.443,1.741,13.443,1.741s7.396-6.722,7.273-11.125c-0.123-4.403-3.808-3.816-3.808-3.816s-0.294-3.675-3.974-2.586l0,0
			C361.132,163.681,359.899,161.804,358.916,161.804z"/>
		<g>
			<path style="opacity:0.2;fill:#421B36;" d="M385.372,193.934l1.857-0.583c-0.055,0.073-0.126,0.148-0.24,0.229
				C386.439,194.266,385.818,194.262,385.372,193.934z M389.851,194.225c-0.874,0.044-1.73-0.267-2.389,0.455
				c0.23,1.061,0.23,1.061,0.924,1.902C390.872,196.884,389.634,195.714,389.851,194.225z M390.53,204.078
				c0.71-0.076,1.453-0.163,2.227-0.263C392.377,202.994,391.177,202.512,390.53,204.078z M375.537,208.942
				c-0.274-0.087-0.534-0.171-0.78-0.25c-0.635,0.42-1.416,0.456-1.553,1.287c0,0.102,0.021,0.186,0.034,0.278l2.383-0.789
				C375.626,209.293,375.614,209.118,375.537,208.942z M413.273,196.23c0.222-1.447-1.302-2.18-2.467-1.644
				C410.37,196.507,411.811,197.323,413.273,196.23z M378.357,200.738c-0.878-0.563-1.786-0.252-2.747-0.655
				c0.765,1.258,0.765,1.258,0.733,2.389C377.378,202.949,379.793,201.822,378.357,200.738z M373.033,199.813
				c0.605,0.152,1.129-0.521,1.798-0.194c0.099,0.042,0.31-0.079,0.419-0.179c0.627-0.558,0.604-1.844-0.382-1.918
				c-0.257-0.099-0.466-0.12-0.64-0.087l-0.166,0.052C373.387,197.794,373.351,199.1,373.033,199.813z M371.801,205.77
				c-0.366,0.25-0.749,0.51-1.102,0.75C369.582,210.088,375.387,207.824,371.801,205.77z M400.211,196.753
				c3.72-0.159-0.482-4.693-1.029-0.924C399.367,196.313,399.713,196.557,400.211,196.753z M400.738,200.006
				c-1.22,0.348-1.144,0.476-1.477,1.511c0.065,0.636,0.357,0.948,0.718,1.04c0.354-0.08,0.707-0.163,1.061-0.25
				C401.783,201.806,402.18,200.732,400.738,200.006z M412.795,190.587c0.686-0.631-0.115-1.155-0.352-1.881
				c-1.668-0.342-1.851,0.96-1.418,2.244C411.95,191.487,412.261,191.333,412.795,190.587z M416.795,189.044
				c-0.107,0.336-0.203,0.632-0.288,0.894c0.181,0.449,0.281,0.613,0.531,1.056c0.412-0.842,0.759-1.585,1.061-2.258
				C417.588,188.654,417.212,188.962,416.795,189.044z M370.014,204.359c-0.564-1.392-2.069-1.726-2.675-0.176
				c0.187,0.376,0.342,0.689,0.469,0.944C369.342,205.676,369.568,205.59,370.014,204.359z M383.152,208.565
				c0.768-0.264,1.246-0.724,1.333-1.492c-0.372-0.578-0.943-0.762-1.476-0.982c-0.66,0.16-1.047,0.565-1.227,1.166
				C382.074,207.854,382.355,208.424,383.152,208.565z M413.396,193.089c0.263,0.483,0.688,0.729,1.132,0.824
				c0.528-0.369,1.153-0.519,1.521-0.958c0.038-0.074,0.079-0.152,0.116-0.225C415.588,191.009,413.518,191.205,413.396,193.089z
				 M418.815,184.712c0.063-0.4,0.116-0.74,0.165-1.063c-0.098-0.064-0.189-0.124-0.283-0.185l-2.203,0.692
				C416.441,185.057,417.612,185.861,418.815,184.712z M372.218,202.538c0.578-0.498,0.702-1.566-0.013-1.992
				c-0.99-0.55-1.8,0.032-2.106,1.101C370.741,202.037,371.493,203.378,372.218,202.538z M396.119,193.063
				c0.809,1.027,0.934,1.071,2.146,0.682c-0.268-0.584,0.208-0.999,0.479-1.598c-0.287-0.279-0.563-0.549-0.845-0.824
				C396.461,191.957,396.461,191.957,396.119,193.063z M365.963,200.214c-0.023,0.008-0.047,0.017-0.069,0.025l0.611,2.143
				c0.356-0.314,0.582-0.851,0.499-1.477C366.742,200.456,366.339,200.378,365.963,200.214z M393.22,200.654
				c-0.08,0.61,0.533,0.815,0.584,1.399C397.683,203.519,395.718,198.783,393.22,200.654z M395.119,190.98
				c0.071-0.051,0.134-0.111,0.197-0.171l-0.531,0.167C394.893,190.979,394.996,190.986,395.119,190.98z M385.724,202.896
				c-0.584,0.296-0.773,0.828-1.078,1.298c0.105,0.089,0.197,0.203,0.286,0.323c0.544-0.026,1.252-0.066,2.096-0.126
				C386.975,203.768,386.499,203.202,385.724,202.896z M409.819,197.492c-0.38-0.122-0.745-0.241-1.093-0.353
				c-0.537,0.543-0.681,1.626-0.613,2.409c0.127,0.111,0.257,0.196,0.391,0.265c0.472-0.216,0.927-0.445,1.37-0.681
				c0.112-0.178,0.225-0.357,0.331-0.525C410.057,198.181,409.943,197.852,409.819,197.492z M397.189,202.947
				c-0.129,0.07-0.226,0.15-0.311,0.234c0.19-0.034,0.379-0.067,0.57-0.103C397.362,203.035,397.275,202.99,397.189,202.947z
				 M392.463,193.907c0.219-0.401,0.426-0.78,0.665-1.218c-0.251-0.371-0.448-0.663-0.665-0.981
				c-0.341,0.087-0.639,0.307-0.989,0.309l-0.644,0.202C389.898,193.005,391.199,194.429,392.463,193.907z M380.592,205.669
				c0.249-0.186,0.526-0.393,0.776-0.58c-0.321-0.563-0.173-1.027-0.48-1.6c-0.891-1.106-1.829,0.076-1.819,1.15
				C379.762,205.335,380.246,205.667,380.592,205.669z M394.27,212.124c0.353-0.013,0.714-0.044,1.076-0.075
				C395.012,211.898,394.621,211.931,394.27,212.124z M373.265,203.827c0.155,0.773,0.462,1.955,1.514,1.581
				c0.212-0.532,0.539-0.887,1.078-1.062C375.675,202.551,374.321,202.958,373.265,203.827z M392.958,210.419
				c-0.731-0.204-1.487-0.434-2.242-0.692c-0.059,0.197-0.114,0.386-0.164,0.553C391.081,211.615,392.477,211.209,392.958,210.419z
				 M386.889,209.21c-1.189-0.929-1.692,0.161-2.006,1.237c0.536,0.216,1.099,0.427,1.713,0.621
				C386.941,210.647,387.114,209.927,386.889,209.21z M404.91,195.204c0.371,0.621,0.711,1.189,1.103,1.845
				c0.844-0.404,1.34-0.905,1.533-1.669c-0.297-0.564-0.785-0.779-1.281-0.915C405.665,194.611,405.303,194.725,404.91,195.204z
				 M405.588,200.255c-0.163,0.328-0.301,0.604-0.434,0.872c0.588-0.198,1.169-0.405,1.734-0.627
				C406.602,200.236,406.17,200.099,405.588,200.255z M406.093,188.73c-1.831,0.155-1.587,1.823-0.075,2.291
				C407.139,190.262,408.023,188.939,406.093,188.73z M416.064,187.044c-0.239-1.363-2.008-1.715-2.334-0.238
				C413.677,188.324,415.787,188.719,416.064,187.044z M394.558,194.526c-0.517,0.382-1.011,0.629-1.366,1.145
				c0.611,0.419,0.943,1.171,1.782,1.104c0.695-0.586,0.695-0.586,1.055-1.42c-0.102-0.181-0.217-0.384-0.33-0.582
				C395.29,194.684,394.91,194.601,394.558,194.526z M410.14,187.444c0-0.344,0-0.615,0-0.955c-0.071-0.1-0.141-0.19-0.209-0.271
				l-1.755,0.551C408.051,187.802,408.612,188.951,410.14,187.444z M403.487,197.124c-0.435,0.014-0.713,0.229-0.679,0.573
				c0.101,0.791-0.552,0.815-0.741,1.46C403.596,200.829,405.612,198.168,403.487,197.124z M377.518,196.583
				c0.65,0.097,0.937-0.137,0.997-0.495l-1.318,0.414C377.301,196.531,377.394,196.57,377.518,196.583z M369.802,199.106
				c0.022-0.1,0.016-0.192,0.02-0.288l-1.65,0.518C368.597,199.574,369.19,199.509,369.802,199.106z M370.029,210.137
				c-0.349-0.953-1.019-1.377-1.627-1.101l0.582,2.039C369.422,210.857,369.882,210.689,370.029,210.137z M396.539,198.434
				c0.251,0.516,0.197,1.244,1.029,1.503c0.486-0.289,0.869-0.708,1.097-1.393C398.514,197.036,396.866,196.867,396.539,198.434z
				 M409.853,191.866c-1.125-1.188-3.244,1.712-0.994,1.85C410.251,193.549,410.401,193.165,409.853,191.866z M399.834,191.022
				c0.412-0.09,0.827-0.18,1.221-0.266c0.621-0.947,0.66-1.342,0.012-1.754l-1.599,0.502
				C399.163,189.925,399.187,190.443,399.834,191.022z M376.201,207.741c0.491,1.132,2.177,0.509,2.342-0.504
				C378.458,205.524,375.759,206.4,376.201,207.741z M389.662,200.528c-0.817-0.237-1.449-0.01-1.918,0.828
				c0.392,0.843,1.423,1.87,2.209,0.759C389.64,201.651,390.225,201.003,389.662,200.528z M382.144,200.864
				c-0.45,1.965,1.291,2.145,2.365,0.881C383.842,200.623,383.65,200.546,382.144,200.864z M404.146,193.636
				c0.852-2.203-2.148-2.948-1.79-0.319c0.386,0.205,0.764,0.406,1.187,0.63C403.732,193.849,403.937,193.744,404.146,193.636z
				 M382.025,195.44c-0.738,0.177,0.208,0.923,0.379,1.313c0.506-0.091,1-0.179,1.426-0.255c0.152-0.502,0.278-0.914,0.429-1.408
				C383.204,194.097,382.912,195.198,382.025,195.44z M380.009,197.472c-0.347,0.464-0.648,0.866-0.933,1.245
				C379.917,201.284,382.998,197.946,380.009,197.472z M390.662,198.782c0.771,0.726,2.836,1.135,2.269-0.516
				C392.396,197.099,390.796,197.575,390.662,198.782z M386.334,199.677c0.281-0.476,0.522-0.882,0.757-1.28
				c-0.089-0.24-0.171-0.461-0.291-0.787c-0.663,0.337-2.202,0.282-1.954,1.234C385.243,199.314,385.66,199.872,386.334,199.677z"/>
			<g>
				<path style="fill:#CC8770;" d="M418.038,158.132c0,0-6.295-3.189-16.212,2.755c-9.917,5.944-16.094,8.313-16.094,8.313
					s-11.671,7.178-20.102,8.591c-8.43,1.413-23.95,4.715-38.529,12.661c-13.583,7.402-20.157,9.507-20.243,10.512
					c-0.086,1.006,4.554,7.992,4.554,7.992s50.528-4.105,79.06-10.9c30.751-7.323,29.688-18.031,29.688-18.031
					C428.101,172.148,426.465,161.719,418.038,158.132z"/>
			</g>
			<g>
				<g>
					<g>
						<path style="fill:#CC8770;" d="M307.078,200.33c0,0-20.984,9.167-24.75,13.153c-3.766,3.987-6.407,7.672-6.59,10.558
							c-0.183,2.887,0.621,4.447,2.494,3.936c1.873-0.511,1.692-2.474,2.504-4.708c0.811-2.234,4.072-4.941,4.072-4.941
							s-1.206,3.506-1.971,7.87c-0.483,2.757,0.374,5.274,3.008,4.082c0,0,2.194,2.834,4.297,0.13c0,0,1.391,1.395,2.88,0.443
							c1.944-1.244,1.848-2.206,2.969-5.471c1.122-3.265,1.793-5.579,6.199-6.781c4.407-1.202,8.4-6.578,9.221-9.643l9.408-1.637
							C320.82,207.319,320.118,196.062,307.078,200.33z"/>
					</g>
				</g>
				<g>
					<g>
						<path style="fill:#421B36;" d="M297.181,210.034c-1.632,1.19-3.176,2.491-4.608,3.915c-0.731,0.726-1.433,1.481-2.1,2.267
							c-0.631,0.743-1.456,1.565-1.784,2.502c-0.347,0.989,0.243,1.77,1.291,1.458c0.869-0.258,1.678-0.886,2.387-1.424
							c1.637-1.242,3.01-2.758,4.12-4.484c0.153-0.237,0.505-0.368,0.774-0.262c3.216,1.275,7.08,0.318,9.253-2.403
							c0.538-0.673,1.659,0.076,1.117,0.755c-2.536,3.175-7.001,4.432-10.801,2.926c0.258-0.087,0.516-0.174,0.774-0.262
							c-1.402,2.18-3.225,4.054-5.392,5.48c-1.441,0.948-3.939,1.967-4.81-0.266c-0.848-2.173,1.534-4.339,2.828-5.771
							c1.83-2.027,3.868-3.847,6.075-5.455C297.001,208.503,297.885,209.521,297.181,210.034L297.181,210.034z"/>
					</g>
				</g>
				<g>
					<g>
						<path style="fill:#421B36;" d="M289.904,230.491c0.717-3.99,1.93-7.861,3.655-11.532c0.365-0.777,1.646-0.353,1.278,0.431
							c-1.672,3.557-2.892,7.319-3.588,11.189C291.097,231.425,289.75,231.344,289.904,230.491L289.904,230.491z"/>
					</g>
				</g>
				<g>
					<g>
						<path style="fill:#421B36;" d="M285.371,230.479c0.141-3.071,0.868-6.103,2.147-8.899c0.151-0.331,0.484-0.549,0.854-0.423
							c0.317,0.107,0.576,0.521,0.423,0.854c-1.235,2.699-1.943,5.591-2.08,8.556C286.677,231.436,285.331,231.346,285.371,230.479
							L285.371,230.479z"/>
					</g>
				</g>
				<g>
					<g>
						<path style="fill:#421B36;" d="M289.698,216.361c1.054,0.966,1.171,2.815,0.274,3.92c-0.115,0.142-0.246,0.249-0.43,0.284
							c-0.162,0.031-0.371-0.003-0.505-0.103c-0.272-0.202-0.419-0.643-0.181-0.936c0.087-0.108,0.163-0.222,0.229-0.344
							c0.058-0.106-0.069,0.158-0.02,0.038c0.013-0.032,0.027-0.063,0.04-0.095c0.023-0.059,0.043-0.118,0.061-0.179
							c0.01-0.033,0.019-0.066,0.027-0.1c0.006-0.026,0.033-0.155,0.009-0.032c-0.024,0.118-0.003,0.011,0.001-0.016
							c0.005-0.034,0.009-0.069,0.013-0.103c0.007-0.069,0.011-0.138,0.013-0.207c0.001-0.035,0.001-0.069,0-0.104
							c-0.001-0.059-0.03-0.147,0.004,0.034c-0.024-0.131-0.032-0.262-0.064-0.392c-0.008-0.034-0.017-0.067-0.027-0.1
							c-0.031-0.106,0.011,0.012,0.017,0.049c-0.01-0.063-0.051-0.134-0.077-0.192c-0.028-0.063-0.06-0.124-0.094-0.184
							c-0.017-0.03-0.036-0.058-0.053-0.088c0.105,0.18,0.048,0.074,0.018,0.033c-0.082-0.112-0.175-0.214-0.277-0.307
							c-0.116-0.106-0.17-0.333-0.16-0.482c0.011-0.167,0.1-0.364,0.234-0.468c0.135-0.106,0.307-0.179,0.482-0.16
							C289.422,216.148,289.557,216.232,289.698,216.361L289.698,216.361z"/>
					</g>
				</g>
			</g>
		</g>
		<g>
			<path style="fill:#421B36;" d="M347.416,179.87c-1.499,11.046-1.949,22.374-1.613,33.511c0.086,2.846,0.242,5.695,0.586,8.522
				c0.089,0.737,1.259,0.746,1.169,0c-0.629-5.177-0.697-10.425-0.655-15.634c0.048-5.862,0.302-11.726,0.762-17.57
				c0.224-2.846,0.495-5.69,0.879-8.519C348.643,179.445,347.517,179.127,347.416,179.87L347.416,179.87z"/>
		</g>
		<g>
			<path style="fill:#421B36;" d="M370.334,218.028c-0.952-7.712-2.62-15.298-4.561-22.815c-0.768-2.974-1.58-5.937-2.339-8.914
				c-0.309-1.211-0.691-2.447-0.882-3.683c0.035,0.224-0.124,0.233,0.105-0.099c0.224-0.324,0.435-0.657,0.652-0.986
				c1.013-1.531,2.027-3.063,3.04-4.594c0.416-0.629-0.595-1.215-1.009-0.59c-0.88,1.329-1.759,2.659-2.639,3.988
				c-0.388,0.586-0.93,1.199-1.218,1.841c-0.308,0.686,0.159,1.732,0.329,2.44c1.542,6.44,3.418,12.793,4.858,19.26
				c1.042,4.677,1.908,9.394,2.495,14.152C369.256,218.765,370.426,218.774,370.334,218.028L370.334,218.028z"/>
		</g>
		<g>
			<path style="fill:#421B36;" d="M348.468,168.331c0.068,0.924,0.136,1.848,0.203,2.772c0.022,0.304,0.253,0.599,0.584,0.584
				c0.297-0.013,0.608-0.258,0.584-0.584c-0.068-0.924-0.136-1.848-0.203-2.772c-0.022-0.304-0.253-0.599-0.584-0.584
				C348.755,167.76,348.444,168.005,348.468,168.331L348.468,168.331z"/>
		</g>
		<path style="fill:#CC8770;" d="M404.689,181.607c0,0,5.702,20.547,14.981,19.358c9.28-1.189,6.302-32.162,5.475-34.121
			C424.319,164.884,403.672,179.124,404.689,181.607z"/>
		<g>
			<path style="fill:#8380FF;" d="M378.361,280.009c1.31,1.189,2.677,2.306,4.058,3.411c0.661,0.529,1.323,1.058,1.974,1.599
				c0.37,0.308,0.738,0.619,1.101,0.935c0.197,0.171,0.718,0.457,0.835,0.629c0.434,0.639,0.54,1.891,0.749,2.622
				c1.044,3.655,2.089,7.31,3.133,10.964c0.284,0.992,0.567,1.985,0.851,2.978c0.206,0.722,1.334,0.415,1.127-0.311
				c-0.757-2.65-1.515-5.301-2.272-7.951c-0.538-1.882-1.076-3.763-1.613-5.645c-0.267-0.935-0.424-2.059-0.841-2.942
				c-0.23-0.487-0.741-0.82-1.143-1.17c-0.759-0.661-1.538-1.3-2.322-1.931c-1.629-1.311-3.262-2.609-4.811-4.015
				C378.631,278.678,377.802,279.503,378.361,280.009L378.361,280.009z"/>
		</g>
		<path style="fill:#421B36;" d="M374.788,108.482c-3.715,0.317-7.422,1.946-9.701,4.897c-2.278,2.951-2.855,7.296-0.913,10.479
			c0.38,0.622,0.856,1.222,0.96,1.943c0.107,0.737-0.195,1.462-0.424,2.171c-0.908,2.813-0.685,5.974,0.609,8.632l20.394-26.227
			C382.232,109.044,378.503,108.165,374.788,108.482z"/>
		<g>
			<path style="fill:#CC8770;" d="M398.373,118.316c-7.266-10.885-23.904-10.024-30.041,1.535
				c-1.941,3.656-2.895,8.559-2.966,15.144c-0.2,18.373,15.339,18.878,15.339,18.878l0.84,8.931l0,0
				c3.227,1.835,12.877-0.701,15.401-4.633l0,0l0.598-10.63c0,0,3.691-15.226,2.819-23.922
				C400.169,121.686,399.437,119.91,398.373,118.316z"/>
			<path style="fill:#421B36;" d="M372.724,125.382c-0.034,0.673,0.429,1.243,1.035,1.274c0.606,0.031,1.126-0.489,1.16-1.162
				c0.035-0.673-0.429-1.243-1.035-1.274C373.278,124.189,372.758,124.709,372.724,125.382z"/>
			<path style="fill:#421B36;" d="M383.981,126.304c-0.034,0.673,0.429,1.243,1.036,1.274c0.606,0.031,1.126-0.489,1.16-1.162
				c0.034-0.673-0.429-1.243-1.036-1.274C384.535,125.112,384.016,125.632,383.981,126.304z"/>
			<g>
				<path style="fill:#421B36;" d="M392.342,119.387c-2.171-1.786-5.505-3.137-8.252-1.698c-0.526,0.276-0.293,1.17,0.307,1.135
					c1.261-0.074,2.416-0.38,3.695-0.209c1.297,0.174,2.725,0.606,3.82,1.329C392.243,120.163,392.655,119.645,392.342,119.387
					L392.342,119.387z"/>
			</g>
			<g>
				<path style="fill:#421B36;" d="M389.177,151.556c-3.43,1.159-6.899,1.92-10.537,1.632c-0.723-0.057-0.712,1.055,0,1.122
					c3.796,0.354,7.499-0.334,10.578-2.657C389.261,151.619,389.238,151.535,389.177,151.556L389.177,151.556z"/>
			</g>
			<path style="opacity:0.3;fill:#421B36;" d="M383.497,131.871c-0.051,0.997,1.469,1.885,3.395,1.984s3.528-0.63,3.579-1.627
				c0.051-0.997-1.469-1.885-3.395-1.984C385.15,130.146,383.548,130.874,383.497,131.871z"/>
			<path style="opacity:0.3;fill:#421B36;" d="M366.33,130.994c-0.051,0.997,1.469,1.885,3.395,1.984
				c1.926,0.098,3.528-0.63,3.579-1.627c0.051-0.997-1.469-1.885-3.395-1.984C367.984,129.268,366.381,129.997,366.33,130.994z"/>
			<g>
				<path style="fill:#421B36;" d="M372.751,118.417c3.688-1.681,6.403,0.765,6.103,4.638c-0.229,2.964-1.606,5.564-2.966,8.133
					c-0.395,0.746,0.619,1.289,1.105,0.646c2.364-3.131,4.425-9.014,2.471-12.781c-1.369-2.638-4.91-3.227-7.041-1.063
					C372.194,118.222,372.481,118.54,372.751,118.417L372.751,118.417z"/>
			</g>
		</g>
		<path style="fill:#421B36;" d="M402.086,116.29c-3.888-4.163-9.55-6.582-15.246-6.625c-0.88-0.007-4.3-0.485-4.54,0.361
			c1.367,5.63,7.225,11.972,12.397,14.583c0.42,0.212,0.879,0.439,1.084,0.863c0.229,0.474,0.066,1.035-0.082,1.54
			c-1.874,6.389-1.714,13.549,2.089,19.015c4.796-3.073,9.04-8.379,9.629-14.045C408.005,126.317,405.974,120.453,402.086,116.29z"
			/>
		<path style="fill:#CC8770;" d="M403.364,130.76c1.056-0.461,2.346-0.164,3.235,0.57c0.889,0.734,1.409,1.841,1.628,2.973
			c0.364,1.881-0.108,3.974-1.473,5.319c-1.365,1.345-3.66,1.752-5.274,0.72"/>
		<g>
			<path style="fill:#421B36;" d="M406.424,136.467c-0.185-0.454-0.262-0.861-0.639-1.206c-0.368-0.336-0.894-0.537-1.379-0.605
				c-1.024-0.145-2.136,0.238-2.823,1.014c-0.481,0.544,0.247,1.264,0.793,0.793c0.579-0.498,1.2-0.803,1.98-0.687
				c0.576,0.086,1.465,0.393,1.885,0.797C406.313,136.643,406.467,136.574,406.424,136.467L406.424,136.467z"/>
		</g>
		<path style="fill:#421B36;" d="M375.698,137.409c0.516,1.286,1.136,2.682,2.386,3.28c1.367,0.654,3.081,0.071,4.125-1.028
			c1.044-1.098,1.543-2.6,1.883-4.077c0.137-0.593,0.223-1.298-0.201-1.733c-0.474-0.486-1.278-0.334-1.922-0.121
			c-2.046,0.675-4.006,1.609-5.819,2.772"/>
		<g>
			<path style="fill:#8380FF;" d="M368.719,230.848c11.162,9.058,26.358,9.108,39.825,6.646c4.507-0.824,8.961-1.905,13.411-2.988
				c0.73-0.178,0.421-1.305-0.311-1.127c-13.752,3.346-28.483,6.821-42.334,2.005c-3.53-1.227-6.859-3.005-9.764-5.363
				C368.966,229.552,368.135,230.374,368.719,230.848L368.719,230.848z"/>
		</g>
		<g>
			<path style="fill:#8380FF;" d="M397.769,111.036c2.16,1.192,4.123,2.695,5.577,4.709c1.221,1.69,2.043,3.607,2.758,5.554
				c0.161,0.438,0.621,0.544,0.977,0.258c4.422-3.56,10.937-2.579,14.137,2.093c0.422,0.617,1.436,0.033,1.009-0.59
				c-3.656-5.337-10.941-6.38-15.972-2.329c0.326,0.086,0.651,0.172,0.977,0.258c-0.785-2.137-1.685-4.24-3.054-6.075
				c-1.545-2.072-3.567-3.645-5.819-4.886C397.7,109.664,397.11,110.673,397.769,111.036L397.769,111.036z"/>
		</g>
		<g>
			<path style="fill:#421B36;" d="M381.733,202.454c4.344,8.388,14.461,11.908,23.12,8.221c0.69-0.294,0.095-1.301-0.59-1.009
				c-8.097,3.447-17.497-0.03-21.521-7.802C382.396,201.196,381.387,201.786,381.733,202.454L381.733,202.454z"/>
		</g>
		<path style="fill:#421B36;" d="M308.991,199.364c0,0,0.901,7.478,4.573,9.923l3.134-0.185c0,0-5.53-7.351-3.854-11.772
			C312.845,197.329,310.454,198.13,308.991,199.364z"/>
		<g>
			<path style="fill:#421B36;" d="M381.984,110.632c1.535-2.176,3.799-3.763,5.858-5.387c0.575-0.454-0.162-1.354-0.77-0.998
				c-2.492,1.456-3.999,3.785-5.353,6.23C381.622,110.653,381.871,110.792,381.984,110.632L381.984,110.632z"/>
		</g>
		<g>
			<path style="fill:#421B36;" d="M382.365,109.896c0.437-2.043,0.57-3.964,1.501-5.886c0.909-1.876,2.259-3.395,3.85-4.722
				c0.605-0.505-0.202-1.568-0.85-1.101c-3.371,2.428-6.337,7.434-5.06,11.71C381.885,110.157,382.302,110.187,382.365,109.896
				L382.365,109.896z"/>
		</g>
		<g>
			<path style="fill:#421B36;" d="M362.466,106.263c-4.97,4.369-11.214,12.4-4.459,18.236c0.233-0.303,0.467-0.605,0.7-0.908
				c-6.02-3.692-13.941-2.043-17.005,4.653c-3.021,6.599,0.787,13.79,7.462,15.936c0.862,0.277,1.205-1.044,0.371-1.344
				c-5.376-1.93-8.866-7.33-6.924-13.042c2.26-6.647,9.775-8.549,15.513-5.205c0.554,0.323,1.199-0.46,0.7-0.908
				c-6.015-5.401-0.216-12.822,3.734-17.325C362.615,106.293,362.53,106.207,362.466,106.263L362.466,106.263z"/>
		</g>
		<g>
			<path style="fill:#421B36;" d="M420.726,134.502c5.024-2.357,10.688-4.464,16.088-1.912c6.629,3.132,8.737,13.73-0.056,15.711
				c-0.886,0.2-0.511,1.557,0.375,1.361c7.006-1.55,9.08-9.62,4.747-15.031c-5.363-6.696-15.294-5.093-21.239-0.238
				C420.575,134.445,420.659,134.533,420.726,134.502L420.726,134.502z"/>
		</g>
		<g>
			<path style="fill:#421B36;" d="M400.586,195.982c9.199-2.253,17.285-8.139,22.277-16.184c0.398-0.641-0.613-1.228-1.009-0.59
				c-4.837,7.796-12.67,13.465-21.578,15.647C399.546,195.034,399.855,196.161,400.586,195.982L400.586,195.982z"/>
		</g>
		<g>
			<path style="fill:#8380FF;" d="M418.428,235.615c11.158,11.405,17.181,26.617,20.183,42.071
				c1.633,8.407,2.29,16.924,2.771,25.463c0.543,9.642,0.841,19.296,1.308,28.941c0.234,4.82,0.509,9.637,0.879,14.448
				c0.188,2.442,0.4,4.881,0.643,7.318c0.179,1.791,0.255,3.657,0.6,5.423c0.557,2.854,1.42,5.682,2.118,8.504
				c3.279,13.264,6.506,26.544,9.481,39.88c2.553,11.444,4.997,22.923,7.147,34.45c0.03,0.16,0.06,0.319,0.089,0.479
				c0.135,0.739,1.262,0.426,1.127-0.311c-1.803-9.84-3.895-19.633-6.021-29.407c-3.049-14.014-6.404-27.96-9.828-41.886
				c-0.936-3.806-1.878-7.611-2.832-11.412c-0.628-2.502-0.671-5.215-0.909-7.777c-0.452-4.879-0.788-9.768-1.062-14.66
				c-0.544-9.719-0.842-19.45-1.318-29.172c-0.425-8.676-0.9-17.372-2.252-25.961c-2.411-15.309-7.477-30.633-17.354-42.806
				c-1.244-1.533-2.562-3.002-3.943-4.413C418.728,234.25,417.901,235.076,418.428,235.615L418.428,235.615z"/>
		</g>
	</g>
</g>
<g id="Character_1">
	<g>
		<path style="fill:#421B36;" d="M167.796,269.872c0.005,0.033,1.132-0.77,1.629,0c0.497,0.77,1.613,7.447,0.497,7.555
			c-1.116,0.108-2.616,0-2.616,0L167.796,269.872z"/>
		<path style="fill:#FFBFBF;" d="M62.916,104.552c0,0-20.382,9.247-40.758,22.512c-5.346,3.48-16.579,15.275-12.219,20.392
			c5.434,6.377,52.15,30.961,55.765,27.264c3.616-3.698,6.967-22.51,6.967-22.51l-36.81-10.563
			c1.979-1.829,27.147-24.731,28.606-27.126C65.927,112.125,62.916,104.552,62.916,104.552z"/>
		<path style="fill:#FFBFBF;" d="M94.809,449.561c0,0-7.043,2.992-10.244,0.858c-3.201-2.134-4.85-24.376-8.992-37.988
			c-4.142-13.612-4.693-49.552-4.693-49.552c-4.259-19.721-6.534-51.795-4.689-72.972c1.844-21.167,15.339-53.305,16.867-54.133
			l13.888,7.184l10.891,15.292c0,0-2.418,22.297-4.874,46.455c-2.681,26.412-5.403,55.046-5.053,59.215
			c0.847,10.043,1.666,9.381,2.347,23.843C100.93,402.215,94.809,449.561,94.809,449.561z"/>
		<path style="fill:#421B36;" d="M66.651,332.344c-0.138,1.4,33.147,4.759,33.314,3.002c0.107-1.126,2.028-20.989,2.028-20.989
			l-36.448-3.877L66.651,332.344z"/>
		<path style="fill:#FFBFBF;" d="M150.766,448.78c0,0,7.537,1.323,10.173-1.479c2.636-2.802-0.784-24.841,0.174-39.037
			c0.958-14.196-6.627-49.331-6.627-49.331c-0.308-20.174-2.192-53.392-8.775-73.604c-6.58-20.203-30.138-46.999-31.813-47.46
			l-11.905,10.137l4.559,14.108c0,0,0.896,21.317,6.487,47.072c5.632,25.944,14.751,52.731,15.352,56.871
			c1.445,9.975,0.497,9.515,3.102,23.757C134.104,404.043,150.766,448.78,150.766,448.78z"/>
		<path style="fill:#421B36;" d="M114.492,315.587c0,0,2.772,17.692,4.684,18.185c1.912,0.493,33.833-3.263,33.925-4.386
			c0.092-1.123-2.034-18.906-2.034-18.906L114.492,315.587z"/>
		<g>
			<g>
				<path style="fill:#FFBFBF;" d="M168.423,275.32c0,0,8.054,23.222,7.746,28.606c-0.308,5.384-1.16,9.76-3.099,11.839
					c-1.941,2.08-3.599,2.558-4.498,0.874c-0.899-1.684,0.626-2.88,1.676-4.969c1.049-2.088,1.656-5.721,1.656-5.721
					s-2.726,5.147-5.447,6.727c-2.721,1.58-3.744,2.763-4.67,0.075c0,0-3.508,0.345-2.994-2.984c0,0-1.937-0.052-2.261-1.76
					c-0.423-2.23,0.33-2.81,1.907-5.817c1.577-3.007,2.779-5.048,0.663-9.011c-2.116-3.963-1.113-8.025,0.524-10.682l-2.756-9.671
					C156.869,272.826,162.67,263.115,168.423,275.32z"/>
			</g>
			<path style="fill:#FFBFBF;" d="M128.974,156.232c0,0,12.039,1.578,15.423,12.358c3.383,10.781,10.618,45.665,14.246,53.778
				c3.636,8.131,8.153,36.101,10.497,54.84l-9.654,2.771c-0.044,0.724-15.217-41.21-19.632-52.803
				c-3.454-9.07-5.279-30.128-7.989-33.607c0,0-2.14,0.392-5.321-6.925C123.363,179.327,123.39,155.728,128.974,156.232z"/>
			<g>
				<path style="fill:#421B36;" d="M169.059,291.583c0.182,2.217,0.133,4.454-0.195,6.656c-0.155,1.04-0.369,2.071-0.636,3.087
					c-0.264,1.004-0.524,2.119-1.023,3.035c-0.216,0.396-0.572,0.842-1.074,0.82c-0.486-0.022-0.637-0.491-0.712-0.903
					c-0.172-0.95-0.051-2.004-0.012-2.961c0.095-2.335,0.358-4.657,0.777-6.956c0.136-0.745-1.006-1.065-1.142-0.315
					c-0.503,2.764-0.799,5.563-0.851,8.372c-0.019,1.02-0.129,2.234,0.455,3.136c0.521,0.804,1.526,1.012,2.371,0.612
					c1.002-0.474,1.407-1.528,1.746-2.512c0.442-1.284,0.79-2.6,1.046-3.933c0.515-2.681,0.661-5.416,0.437-8.137
					C170.181,290.829,168.996,290.822,169.059,291.583L169.059,291.583z"/>
			</g>
			<g>
				<path style="fill:#421B36;" d="M165.404,294.036c-0.386-0.196-0.757-0.419-1.11-0.669c-0.08-0.057-0.16-0.115-0.237-0.175
					c0.078,0.06-0.066-0.053-0.066-0.053c-0.038-0.031-0.076-0.062-0.114-0.094c-0.166-0.139-0.327-0.283-0.482-0.434
					c-0.148-0.144-0.292-0.292-0.429-0.446c-0.072-0.081-0.143-0.163-0.212-0.246c-0.031-0.038-0.063-0.076-0.093-0.114
					c0,0-0.112-0.144-0.053-0.066c-0.262-0.344-0.496-0.709-0.704-1.089c-0.149-0.272-0.547-0.383-0.81-0.212
					c-0.276,0.178-0.372,0.52-0.212,0.81c0.889,1.623,2.276,2.973,3.926,3.811c0.276,0.14,0.655,0.082,0.81-0.212
					C165.759,294.576,165.699,294.185,165.404,294.036L165.404,294.036z"/>
			</g>
		</g>
		<g>
			<g>
				<g>
					<path style="fill:#8380FF;" d="M70.623,460.384c0.741-0.537,1.68-0.866,2.427-1.532c3.404-3.034,6.506-7.551,7.99-11.72
						c1.809-5.085-2.96-22.137-3.097-24.989c5.476-1.725,10.683-1.829,20.125-0.759c0.631,0.335-0.952,23.231-0.918,28.489
						c0.037,5.707,5.606,19.541,3.889,22.996c-1.717,3.455-26.646,8.069-36.02,8.904c-14.562,1.298-19.764-4.889-19.858-6.759
						C45.096,473.731,66.508,463.365,70.623,460.384z"/>
					<path style="fill:#8380FF;" d="M45.431,474.58c0.441-0.368,0.879-0.652,1.681-1.156c0,0-0.036-0.096,0,0
						c0.308,0.188,9.637,5.588,25.614,4.709c16.248-0.896,28.458-10.128,28.458-10.128c0.303,2.152,0.361,4-0.114,4.952
						c-0.054,0.109-0.132,0.216-0.227,0.324c-0.193,0.223-0.477,0.449-0.837,0.676c-5.195,3.284-26.466,7.149-34.959,7.907
						c-11.197,1-16.736-2.396-18.869-4.875C45.11,475.68,44.976,474.96,45.431,474.58z"/>
				</g>
				<path style="fill:#421B36;" d="M50.813,471.371l19.81-10.987c2.018-1.181,4.054-3.301,6.097-5.869c0,0-0.187-0.137,0,0
					c2.174-5.535,6.993-6.139,9.529-3c1.685,2.086,1.931,5.409,1.877,7.615c0.238,0.011,0.476,0.027,0.714,0.023
					c6.094-0.092,9.493-3.767,9.493-3.767c1.243,4.772,2.371,9.322,2.852,12.618c0,0-12.164,9.414-28.413,10.312
					c-16.248,0.898-25.66-4.893-25.66-4.893L50.813,471.371z"/>
			</g>
			<g>
				<path style="fill:#FFFFFF;" d="M66.065,463.169c0.565,0.806,1.44,1.347,2.159,2.015c0.804,0.747,1.413,1.725,2.232,2.431
					c0.681,0.587,1.663-0.139,1.245-0.961c-0.514-1.011-1.611-1.812-2.517-2.459c-0.859-0.614-1.907-1.273-2.992-1.247
					C66.088,462.951,65.998,463.075,66.065,463.169L66.065,463.169z"/>
			</g>
			<g>
				<path style="fill:#FFFFFF;" d="M69.968,460.896c0.405,0.779,1.448,1.281,2.091,1.856c0.764,0.685,1.353,1.561,2.169,2.175
					c0.651,0.49,1.558-0.319,1.341-1.031c-0.356-1.169-1.462-2.087-2.472-2.709c-0.829-0.51-2.056-1.109-3.023-0.692
					C69.923,460.56,69.902,460.77,69.968,460.896L69.968,460.896z"/>
			</g>
			<g>
				<path style="fill:#FFFFFF;" d="M73.133,458.354c0.696,0.553,1.68,0.772,2.49,1.132c0.961,0.427,1.729,1.251,2.704,1.585
					c0.713,0.244,1.203-0.6,0.911-1.185c-0.814-1.624-4.449-2.963-6.056-1.909C73.065,458.053,73.004,458.252,73.133,458.354
					L73.133,458.354z"/>
			</g>
			<g>
				<path style="fill:#A0D2F4;" d="M59.286,466.743c6.448,12.169,21.628-3.542,28.287-6.53c0.936-0.42,0.125-1.803-0.807-1.381
					c-8.177,3.706-17.765,16.607-26.8,7.386C59.615,465.859,59.059,466.314,59.286,466.743L59.286,466.743z"/>
			</g>
			<path style="fill:#FFFFFF;" d="M72.455,478.411c0,0,6.629-2.401,7.365-6.075c0.736-3.674-1.279-6.512-1.279-6.512l2.435-1.809
				c0,0,2.6,6.959,3.651,6.716c1.051-0.243,6.028-6.674,8.647-8.289s6.816,0,6.816,0c0.419,1.59,0.76,3.152,0.932,4.535
				c0,0-3.648-1.005-5.54,0.077c-1.892,1.082-7.521,7.966-7.521,7.966S78.963,478.432,72.455,478.411z"/>
		</g>
		<path style="fill:#8380FF;" d="M75.493,235.344c0,0-3.509,8.867-6.73,22.469c-3.221,13.602-6.997,44.598-5.204,51.372
			c1.662,6.278,41.112,6.402,41.112,6.402l1.793-27.669c0,0,3.223,26.046,5.614,27.436c2.391,1.39,40.692-3.815,42.302-6.175
			c1.61-2.36-13.956-64.719-20.77-72.244C129.9,232.838,75.493,235.344,75.493,235.344z"/>
		<path style="opacity:0.2;fill:#421B36;" d="M131.431,249.564c0.98-1.102,2.211,0.177,2.369,1.336
			C132.064,252.033,130.521,251.914,131.431,249.564z M109.763,254.714c-0.976-0.02-1.522,0.501-1.859,1.342
			c0.917,0.005,1.821,0,2.713-0.014c0.029-0.059,0.057-0.115,0.087-0.174C110.367,255.454,110.072,255.091,109.763,254.714z
			 M75.587,245.932c1.224-1.415-0.063-2.846-1.688-2.026C72.378,244.639,74.434,246.565,75.587,245.932z M93.308,250.262
			c-0.037-0.835-0.553-1.168-1.306-1.254c-1.097,0.416-0.946,1.353-1.14,2.2C92.069,252.24,92.816,251.541,93.308,250.262z
			 M82.215,248.057c0.958,1.066,1.904,0.527,2.524-0.57C83.937,245.592,81.877,245.881,82.215,248.057z M100.643,246.079
			c-0.45,0.396-0.913,0.805-1.36,1.197c0.232,0.502,0.424,0.914,0.597,1.287c0.735-0.185,1.293,0.322,1.892-0.26
			C101.855,246.678,101.78,246.534,100.643,246.079z M102.109,244.62c0.145,0.626,0.524,0.989,1.207,1.15
			C106.913,245.077,103.49,241.849,102.109,244.62z M98.339,251.782c0.455-0.389,0.561-0.914,0.82-1.358
			c-0.372-1.602-2.893-1.616-2.592,0.256C96.995,251.36,97.673,251.549,98.339,251.782z M105.956,242.901
			c1.041,0.337,1.798-0.987,1.512-1.792l-2.192,0.063C104.988,241.806,105.188,242.704,105.956,242.901z M87.635,244.696
			c-0.376-1.706-3.212-1.524-2.46,0.4C85.732,246.032,87.732,246.083,87.635,244.696z M130.767,248.091
			c0.565-1.457-1.516-2.457-2.375-1.329C127.556,248.204,129.779,248.83,130.767,248.091z M91.292,255.227
			c0.545,0.047,1.093,0.092,1.646,0.136C92.35,254.834,91.706,254.892,91.292,255.227z M76.111,250.417
			c-0.17-0.512-0.385-0.975-0.989-1.246C71.753,249.659,74.745,253.726,76.111,250.417z M93.645,242.266
			c0.877,0.688,2.392,0.695,2.668-0.596c-0.047-0.086-0.101-0.164-0.156-0.239l-2.592,0.074
			C93.535,241.721,93.551,241.972,93.645,242.266z M107.143,248.678c0.241-0.319,0.452-0.598,0.683-0.903
			C107.017,243.777,103.313,249.107,107.143,248.678z M84.477,241.764l-2.352,0.067c-0.091,0.219-0.173,0.447-0.247,0.667
			C82.814,243.252,84.425,242.813,84.477,241.764z M129.713,252.154c-1.287-0.233-1.723,0.729-1.317,1.484
			c0.869-0.223,1.675-0.442,2.41-0.655C130.723,252.452,130.256,251.879,129.713,252.154z M127.572,249.62
			c-1.408-0.744-1.757-0.629-2.415,0.754C125.311,252.119,128.385,251.395,127.572,249.62z M130.267,240.801
			c-0.513-0.457-1.1-0.246-1.729-0.195C126.905,243.266,131.235,243.927,130.267,240.801z M89.687,246.303
			c-0.899,0.501-2.235,0.454-1.547,1.764C89.204,250.154,91.491,247.647,89.687,246.303z M123.095,254.362
			c0.9,0.289,1.367-0.207,1.779-0.889c-0.15-0.558-0.375-1.105-0.627-1.612c-0.426,0-0.774,0-1.199,0
			c-0.155,0.915-0.155,0.915-0.524,1.403C122.716,253.634,122.912,254.008,123.095,254.362z M79.043,250.411
			c0.835,1.589,3.07,1.519,2.557-0.578c-0.477-0.438-1-0.434-1.615-0.52C79.644,249.682,79.242,249.948,79.043,250.411z
			 M87.877,241.856c0.878,1.741,2.585,1.019,2.356-0.256l-2.264,0.065C87.939,241.73,87.909,241.79,87.877,241.856z
			 M136.314,248.299c0.065-0.32,0.135-0.66,0.209-1.03c-0.346-0.329-0.682-0.649-1.035-0.987c-0.653,0.383-1.459,0.439-1.625,1.393
			C134.702,248.653,134.864,249.026,136.314,248.299z M137.615,245.8c0.191,0.054,0.363,0.062,0.515,0.035l-0.782-2.25
			C136.681,244.217,136.617,245.671,137.615,245.8z M113.462,246.749c-0.832-1.018-2.426-0.089-2.259,1.137
			C112.033,249.531,113.713,248.342,113.462,246.749z M72.799,248.348c0.557-1.354-0.154-2.049-0.935-1.983l-0.598,2.007
			C71.762,248.516,72.279,248.443,72.799,248.348z M73.138,242.088l-0.096,0.324c0.067-0.076,0.12-0.188,0.165-0.326L73.138,242.088
			z M108.856,243.464c-0.325,0.416-0.798,0.672-0.991,1.147c0.545,0.754,1.096,1.071,2.018,1.155
			C111.383,244.88,110.315,243.58,108.856,243.464z M107.854,253.166c-0.142-1.271-2.08-1.734-2.434-0.411
			C105.662,254.671,106.875,254.91,107.854,253.166z M83.664,251.998c-1.335,0.031-2.363,2.305-0.266,2.415
			C84.675,254.164,85.029,252.39,83.664,251.998z M125.027,241.853c-0.585-0.846-0.658-0.951-1.266-1.209l-0.534,0.015
			c-0.239,0.134-0.501,0.281-0.846,0.474C123.255,242.827,123.688,244.257,125.027,241.853z M99.48,253.25
			c0.335,1.255,0.646,1.325,1.758,1.087c0.184-0.264,0.387-0.552,0.587-0.839c-0.115-0.444-0.224-0.861-0.366-1.411
			C100.535,252.115,99.742,252.222,99.48,253.25z M81.238,243.68c-1.81-0.492-2.341,1.33-0.896,2.307
			C81.67,245.524,82.41,244.712,81.238,243.68z M78.483,252.228c-1.283-0.159-1.872,0.33-1.906,1.363
			c0.613,0.085,1.258,0.172,1.938,0.261C78.854,253.384,78.926,252.747,78.483,252.228z M121.21,251.094
			c1.893-0.363,0.424-1.963-0.852-1.918C118.869,249.352,119.689,251.962,121.21,251.094z M115.656,251.464
			c0.111-0.437,0.129-0.816,0.514-1.086c0.987-1.124-1.405-1.302-2.063-0.795c-0.031,0.471-0.063,0.939-0.092,1.379
			C114.465,251.426,114.99,251.534,115.656,251.464z M104.459,250.431c-0.005-1.843-2.462-1.403-2.356,0.198
			C102.229,251.396,104.732,251.806,104.459,250.431z M117.351,246.599c-1.061,1.339-0.678,1.222,0.357,1.972
			c0.802,0.369,1.453-0.611,1.604-1.35C118.804,246.313,118.05,246.513,117.351,246.599z M110.689,241.411
			c0.868,1.341,1.734,2.046,2.863,0.646c-0.131-0.533-0.379-0.885-0.734-1.101L111.28,241
			C111.083,241.137,110.883,241.276,110.689,241.411z M98.902,244.171c-0.213-0.223-0.48-0.502-0.748-0.781
			c-0.709,0.346-1.555,0.232-1.733,1.102c0.379,0.525,0.716,0.994,1.105,1.532C98.414,245.878,98.78,245.105,98.902,244.171z
			 M76.405,247.598c0.26,0.82,1.565,1.139,2.311,0.457C79.309,246.284,76.264,245.659,76.405,247.598z M118.345,252.104
			c-0.504,0.494-1.381,0.407-1.863,1.115c0.336,0.777,0.923,1.109,1.585,1.439c0.345-0.4,0.671-0.779,1.026-1.192
			C118.766,253.071,118.931,252.447,118.345,252.104z M70.914,252.685c0.433,0.089,1.035,0.198,1.782,0.322
			c-0.175-0.291-0.355-0.592-0.57-0.95C71.415,251.987,71.051,252.28,70.914,252.685z M137.103,250.51
			c0,0.048,0.018,0.076,0.022,0.119c0.859-0.449,1.37-0.821,1.671-1.097C138.063,249.032,137.04,249.214,137.103,250.51z
			 M85.012,250.401c0.151,0.756,0.507,1.256,1.282,1.352c0.754-0.598,0.754-0.598,1.066-1.459
			C86.804,248.969,85.585,249.363,85.012,250.401z M99.245,241.36c0.213,0.209,0.397,0.389,0.582,0.568
			c-0.026,0.256-0.054,0.51-0.088,0.833c0.53,0.024,0.964,0.256,1.521,0.06c0.254-0.625,0.327-1.154,0.258-1.543l-2.253,0.064
			C99.258,241.349,99.252,241.354,99.245,241.36z M123.519,248.835c1.076-0.156,1.989-1.764,0.656-2.257
			C122.267,246.261,122.133,247.919,123.519,248.835z M108.062,250.388c0.364,0.849,1.849,1.446,2.289,0.345
			C110.423,248.929,108.265,248.491,108.062,250.388z M78.038,242.829c0.25-0.202,0.487-0.395,0.711-0.575
			c-0.04-0.118-0.075-0.22-0.11-0.323l-2.2,0.063C76.659,242.479,77.269,242.838,78.038,242.829z M103.363,254.964
			c-0.345,0.349-0.558,0.682-0.669,0.98c0.669,0.025,1.335,0.045,2,0.062c-0.141-0.263-0.284-0.532-0.416-0.778
			C103.985,255.143,103.724,255.068,103.363,254.964z M116.736,241.997c0.374,1.019,1.547,1.238,2,0.33
			c-0.3-0.445,0.324-0.688,0.248-1.057c-0.296-0.245-0.547-0.396-0.774-0.468l-0.542,0.015
			C117.35,240.957,117.062,241.335,116.736,241.997z M95.64,246.559c-1.347-0.45-2.921,0.908-1.332,1.827
			C95.191,248.725,96.726,247.494,95.64,246.559z M91.1,245.209c0.855,1.083,1.254,0.467,1.851-0.112
			c-0.023-0.481-0.043-0.906-0.064-1.338C91.582,242.832,91.125,243.99,91.1,245.209z M94.297,252.377
			c-1.133,0.785,0.463,2.905,1.534,1.64C95.591,252.637,96.23,251.708,94.297,252.377z M136.382,241.421
			c-0.309-0.33-0.625-0.669-1.029-1.101c-1.755,1.12-1.943,2.133,0.359,2.346C135.943,242.239,136.142,241.868,136.382,241.421z
			 M114.176,255.93c0.674-0.033,1.334-0.074,1.981-0.122C115.622,254.906,114.492,255.035,114.176,255.93z M120.42,255.274
			c-0.008,0.023-0.017,0.051-0.025,0.075c0.274-0.041,0.543-0.083,0.808-0.127C120.995,255.183,120.75,255.181,120.42,255.274z
			 M111.359,254.057c1.156-0.146,1.253-0.193,1.7-0.855c-0.279-0.352-0.495-0.776-0.605-1.211
			C111.092,251.824,110.284,253.066,111.359,254.057z M97.171,254.848c-0.071,0.304-0.135,0.582-0.188,0.806
			c0.587,0.037,1.174,0.074,1.763,0.107c-0.095-0.254-0.245-0.521-0.437-0.788C97.921,254.93,97.576,254.892,97.171,254.848z
			 M127.603,245.087c0.043-1.738-0.682-2.058-1.971-0.877C125.921,246.199,126.169,245.926,127.603,245.087z M120.957,245.797
			c1.225,0.022,0.656-1.311,0.662-2.131c-0.298,0.065-0.552,0.122-0.807,0.176c-0.249,0.053-0.488-0.344-0.743-0.021
			c0.222,0.553,0.081,1.093-0.2,1.565C120.147,245.897,120.574,245.804,120.957,245.797z M87.899,253.016
			c0.298,1.214,1.223,2.035,1.456,0.758c0.368-0.168,0.635-0.29,0.916-0.418c-0.249-0.387-0.451-0.703-0.641-0.997
			C88.814,252.085,88.453,252.776,87.899,253.016z M114.919,245.96c0.418-0.4,0.836-0.8,1.316-1.259
			c-0.474-1.781-1.64-0.365-2.397,0.363C114.054,245.573,114.428,245.826,114.919,245.96z M132.847,245.71
			c0.942-1.575,0.056-2.158-1.572-1.532c0.57,0.481,0.125,0.854,0.037,1.297C131.916,245.327,132.32,245.851,132.847,245.71z"/>
		<path style="fill:#FFBFBF;" d="M61.803,105.023c0,0,12.909-11.846,20.463-11.496c7.554,0.35,19.608,5.785,19.463,8.55
			c-0.145,2.764-1.773,3.762-1.773,3.762l-32.768,4.484l-2.179,4.197L61.803,105.023z"/>
		<path style="fill:#A0D2F4;" d="M76.95,243.22c20.74,3.687,57.301,1.16,59.252-2.931c1.134-2.378,1.522-37.748,0.519-57.815
			c2.859-3.585,12.901,0.058,12.348-4.251c-0.852-6.639-7.562-24.447-14.003-26.888c-3.701-1.402-21.345-3.435-24.369-3.682
			c-5.532-0.936-27.69,1.598-34.546,2.249c-2.674-2.977-5.245-2.867-7.5,0.183c-4.29-0.357-12.292-5.299-13.916-3.075
			c-3.609,4.942-8.793,24.894-8.189,26.175c0.604,1.281,19,10.718,19,10.718c0.339,3.759,6.479,36.373,8.505,43.625
			c0,0-6.93,9.275-5.118,12.691S76.95,243.22,76.95,243.22z"/>
		<g>
			<path style="fill:#421B36;" d="M111.352,312.565c-0.986-2.111-1.381-4.576-1.831-6.842c-0.646-3.252-1.165-6.53-1.647-9.81
				c-0.708-4.815-1.09-9.699-1.871-14.499c-0.109-0.668-0.618-1.078-1.058-1.582c-0.883-1.009-1.766-2.019-2.649-3.028
				c-0.503-0.575-1.338,0.266-0.838,0.838c0.739,0.845,1.479,1.69,2.218,2.535c0.359,0.41,0.707,0.941,1.127,1.288
				c0.374,0.31,0.066-0.35,0.011-0.091c-0.096,0.454,0.135,1.185,0.188,1.641c0.123,1.054,0.25,2.107,0.38,3.161
				c0.791,6.409,1.643,12.827,2.863,19.17c0.501,2.606,0.954,5.394,2.086,7.817C110.652,313.853,111.673,313.252,111.352,312.565
				L111.352,312.565z"/>
		</g>
		<g>
			<path style="fill:#421B36;" d="M136.75,189.34c0.774-8.355,0.665-16.801-0.977-25.053c-0.188-0.942-1.541-0.52-1.414,0.39
				c1.157,8.232,1.868,16.345,1.498,24.664C135.831,189.921,136.698,189.903,136.75,189.34L136.75,189.34z"/>
		</g>
		<g>
			<path style="fill:#421B36;" d="M91.807,142.34c-1.872-0.661-12.564-3.682-19.446-7.493c-8.437-4.672-7.392-7.803-8.826-13.8
				c-1.435-5.997,0.896-13.603,6.624-18.982c5.727-5.379,16.025-5.382,18.444-2.201c2.419,3.181,9.277,12.038,9.277,12.038"/>
		</g>
		<g>
			<g>
				<path style="fill:#FFBFBF;" d="M66.449,120.305c-2.418-13.683,10.975-25.237,24.168-20.877
					c4.172,1.379,8.503,4.439,13.393,9.438c13.642,13.945,2.094,25.74,2.094,25.74l1.494,14.556l-15.624-0.134l-0.822-6.765
					c0,0-16.621-9.12-22.336-16.429C67.546,124.208,66.803,122.309,66.449,120.305z"/>
			</g>
		</g>
		<g>
			<g>
				<path style="fill:#421B36;" d="M90.873,107.234c0.52,0.491,0.583,1.268,0.141,1.737c-0.442,0.469-1.222,0.451-1.743-0.039
					c-0.52-0.491-0.583-1.268-0.141-1.737C89.573,106.726,90.353,106.743,90.873,107.234z"/>
			</g>
		</g>
		<g>
			<g>
				<path style="fill:#421B36;" d="M82.023,116.967c0.52,0.491,0.583,1.269,0.141,1.737c-0.442,0.469-1.222,0.451-1.743-0.039
					c-0.52-0.491-0.583-1.268-0.141-1.737C80.723,116.459,81.503,116.477,82.023,116.967z"/>
			</g>
		</g>
		<g>
			<g>
				<g>
					<path style="fill:#421B36;" d="M73.431,117.418c0.316-1.38,1.205-2.845,2.104-3.92c0.835-0.999,1.923-1.588,2.89-2.42
						c0.558-0.48-0.086-1.344-0.715-1.167c-3.169,0.892-4.688,4.392-5.035,7.332C72.618,117.727,73.316,117.918,73.431,117.418
						L73.431,117.418z"/>
				</g>
			</g>
		</g>
		<g style="opacity:0.2;">
			<g>
				<path style="fill:#421B36;" d="M87.235,119.578c0.771,0.727,0.257,2.524-1.147,4.014c-1.405,1.489-3.169,2.107-3.94,1.38
					c-0.771-0.727-0.257-2.524,1.147-4.014C84.7,119.468,86.464,118.851,87.235,119.578z"/>
			</g>
		</g>
		<g style="opacity:0.2;">
			<g>
				<path style="fill:#421B36;" d="M98.949,107.16c0.771,0.727,0.257,2.524-1.147,4.014c-1.405,1.489-3.169,2.107-3.94,1.38
					c-0.771-0.728-0.257-2.525,1.147-4.014C96.413,107.05,98.177,106.432,98.949,107.16z"/>
			</g>
		</g>
		<g>
			<g>
				<g>
					<path style="fill:#FFBFBF;" d="M74.553,131.38c-2.615,0.8-3.551,2.69-3.694,3.905c-0.143,1.215,0.271,2.447,0.934,3.475
						c1.102,1.71,3,2.969,5.034,2.998c2.034,0.029,6.034-3.561,6.514-5.538L74.553,131.38z"/>
				</g>
			</g>
			<g>
				<g>
					<g>
						<path style="fill:#421B36;" d="M75.341,138.082c0.072-0.395,0.536-1.049,0.803-1.333c0.445-0.473,0.959-0.545,1.574-0.581
							c0.72-0.042,0.862-1.113,0.127-1.277c-0.888-0.197-1.873,0.174-2.474,0.847c-0.285,0.319-0.523,0.757-0.585,1.184
							c-0.073,0.509,0.145,0.729,0.324,1.167C75.151,138.19,75.318,138.211,75.341,138.082L75.341,138.082z"/>
					</g>
				</g>
			</g>
		</g>
		<g>
			<g>
				<g>
					<path style="fill:#421B36;" d="M86.087,100.983c-3.288-0.115-5.585,2.957-4.657,6.043c1.304,4.335,7.203,7.349,11.349,8.009
						c0.953,0.152,1.238-1.145,0.335-1.447c-2.916-0.974-5.873-1.953-8.208-4.06c-1.623-1.464-3.11-3.609-1.701-5.808
						c0.588-0.917,1.954-1.792,2.975-2.155C86.5,101.451,86.427,100.995,86.087,100.983L86.087,100.983z"/>
				</g>
			</g>
		</g>
		<g>
			<g>
				<g>
					<path style="fill:#421B36;" d="M97.933,139.154c4.002-0.449,7.596-2.608,10.116-5.734c0.497-0.616-0.344-1.441-0.906-0.855
						c-2.699,2.817-5.725,4.818-9.242,6.482C97.85,139.072,97.877,139.161,97.933,139.154L97.933,139.154z"/>
				</g>
			</g>
		</g>
		<g>
			<g>
				<path style="fill:#421B36;" d="M93.564,119.671c-0.804,0.102-1.677,0.191-2.486,0.131c-0.886-0.066-1.66-0.385-2.491-0.661
					c-0.781-0.26-1.018,0.851-0.456,1.241c1.579,1.096,4.104,1.02,5.611-0.121C93.966,120.09,93.912,119.627,93.564,119.671
					L93.564,119.671z"/>
			</g>
		</g>
		<g>
			<path style="fill:#421B36;" d="M78.13,133.918c0,0,0.785-7.461-5.193-12.202c-5.978-4.741-5.815-3.105-6.064-5.888
				c-0.249-2.783,1.313-6.045,2.389-6.829c1.076-0.784,4.159-1.639,6.132-4.759c1.232-1.948,1.062-3.688,1.062-3.688
				s-7.589-1.381-9.638,9.729c-2.05,11.11-1.593,12.71,0.711,16.837C69.832,131.247,78.13,133.918,78.13,133.918z"/>
		</g>
		<path style="fill:#FFBFBF;" d="M90.072,148.714c0,0,3.841,4.477,10.829,4.459c6.988-0.018,8.574-5.654,8.574-5.654
			S97.523,146.926,90.072,148.714z"/>
		<g>
			<path style="fill:#421B36;" d="M82.506,98.357c6.065,0.713,11.844,3.056,16.732,6.707c0.611,0.457,1.202-0.571,0.598-1.023
				c-5.066-3.784-11.055-6.132-17.329-6.869C81.75,97.083,81.757,98.269,82.506,98.357L82.506,98.357z"/>
		</g>
		<g>
			<path style="fill:#FFFFFF;" d="M133.227,243.605c5.859,16.741,9.899,34.041,14.007,51.273c1.153,4.837,2.312,9.674,3.516,14.499
				c0.184,0.739,1.327,0.426,1.142-0.315c-4.292-17.201-8.001-34.557-12.985-51.579c-1.396-4.767-2.896-9.504-4.537-14.193
				C134.119,242.575,132.974,242.883,133.227,243.605L133.227,243.605z"/>
		</g>
		<g>
			<path style="fill:#421B36;" d="M29.568,144.758c2.648-0.812,5.143-2.078,7.35-3.753c0.254-0.193,0.388-0.511,0.212-0.81
				c-0.146-0.25-0.554-0.407-0.81-0.212c-2.128,1.615-4.513,2.849-7.067,3.633C28.526,143.838,28.836,144.982,29.568,144.758
				L29.568,144.758z"/>
		</g>
		<g>
			<path style="fill:#FFFFFF;" d="M66.723,311.683c0.775-17.231,2.905-34.39,6.398-51.282c0.992-4.797,2.096-9.57,3.302-14.318
				c0.188-0.739-0.955-1.055-1.142-0.315c-4.251,16.745-7.182,33.818-8.739,51.025c-0.448,4.955-0.78,9.92-1.003,14.89
				C65.504,312.445,66.689,312.443,66.723,311.683L66.723,311.683z"/>
		</g>
		<g>
			<path style="fill:#FFFFFF;" d="M101.971,247.644c-3.316,2.955-5.744,6.875-6.881,11.173c-0.228,0.864-0.534,1.863-0.213,2.744
				c0.286,0.784,1.146,1.184,1.917,0.816c0.927-0.441,1.398-1.612,1.848-2.464c0.561-1.064,1.068-2.154,1.528-3.265
				c1.072-2.585,1.85-5.28,2.337-8.035c0.132-0.746-1.01-1.066-1.142-0.315c-0.458,2.593-1.172,5.134-2.151,7.578
				c-0.47,1.173-1.006,2.321-1.595,3.439c-0.289,0.547-0.56,1.185-0.959,1.662c-0.501,0.6-0.766,0.222-0.731-0.402
				c0.063-1.12,0.526-2.322,0.909-3.367c0.394-1.075,0.879-2.115,1.44-3.113c1.189-2.115,2.721-3.999,4.531-5.613
				C103.379,247.974,102.539,247.138,101.971,247.644L101.971,247.644z"/>
		</g>
		<g>
			<path style="fill:#FFFFFF;" d="M101.578,249.848c0.356,2.356,1.012,4.644,1.952,6.834c0.491,1.145,1.059,2.256,1.702,3.323
				c0.508,0.843,1.082,2.026,1.946,2.56c0.818,0.505,1.811,0.178,2.29-0.634c0.534-0.906,0.287-2.099,0.128-3.076
				c-0.348-2.14-1.114-4.219-2.204-6.092c-1.217-2.093-2.843-3.896-4.768-5.358c-0.607-0.461-1.198,0.567-0.598,1.023
				c3.6,2.734,6.117,7.057,6.538,11.581c0.042,0.452,0.132,1.835-0.703,1.589c-0.493-0.145-0.952-1.154-1.211-1.556
				c-0.673-1.048-1.272-2.143-1.793-3.274c-1.057-2.294-1.758-4.739-2.136-7.234C102.606,248.782,101.465,249.101,101.578,249.848
				L101.578,249.848z"/>
		</g>
		<g>
			<path style="fill:#8380FF;" d="M161.207,422.471c-0.184,0.678,1.611,21.119,5.557,30.257c2.816,6.522-13.322,9.366-13.322,9.366
				s-7.636-26.147-11.074-36.19C140.544,420.573,161.207,422.471,161.207,422.471z"/>
			<g>
				<path style="fill:#8380FF;" d="M186.274,472.797c0,0,0.093,2.273-0.271,4.332c-0.364,2.059-7.362,3.412-16.607,3.212
					c-9.244-0.2-14.633-4.333-15.018-4.791c-0.386-0.458-1.46-7.447-1.46-7.447L186.274,472.797z"/>
				<path style="fill:#421B36;" d="M166.135,450.068c0.345,0.259,9.718,12.883,12.701,14.754c2.983,1.871,7.693,4.604,7.444,8.695
					c-0.25,4.091-17.649,3.87-24.45,2.334c-6.801-1.536-6.635-0.706-7.845-3.036c-1.21-2.33-1.755-12.012-1.829-13.327
					C152.082,458.173,155.87,442.371,166.135,450.068z"/>
				<path style="fill:#FFFFFF;" d="M159.64,464.719c0,0-2.639,2.124-1.827,4.56c0.812,2.437,6.39,1.665,6.187,6.966l-5.648-1.124
					c0,0-0.235-3.623-2.062-4.326c-1.827-0.704-2.671,1.031-2.671,1.031l-0.7-5.592l4.487-3.345L159.64,464.719z"/>
				<g>
					<path style="fill:#A0D2F4;" d="M154.345,458.559c2.325,5.873,8.263,9.454,14.563,8.97c1.816-0.139,5.537-0.557,6.44-2.47
						c1.023-2.167-2.346-6.002-3.283-7.6c-0.464-0.791-1.709-0.067-1.231,0.72c0.516,0.849,1.031,1.698,1.538,2.553
						c0.962,1.622,1.759,2.017,0.764,3.602c-1.381,2.2-5.495,1.987-7.783,1.578c-4.567-0.816-7.967-3.801-10.398-7.609
						C154.762,458.002,154.199,458.192,154.345,458.559L154.345,458.559z"/>
				</g>
				<g>
					<path style="fill:#FFFFFF;" d="M165.029,464.77c1.085-0.299,2.104-0.712,3.224-0.876c1.248-0.183,2.386-0.07,3.626,0.086
						c0.994,0.125,1.053-1.351,0.223-1.649c-2.402-0.863-5.921-0.049-7.141,2.351C164.938,464.727,164.977,464.784,165.029,464.77
						L165.029,464.77z"/>
				</g>
				<g>
					<path style="fill:#FFFFFF;" d="M158.645,458.066c2.63-0.692,4.945-1.314,7.694-1.15c0.792,0.047,0.985-1.254,0.189-1.401
						c-2.802-0.518-6.107,0.098-7.987,2.372C158.476,457.967,158.535,458.095,158.645,458.066L158.645,458.066z"/>
				</g>
				<g>
					<path style="fill:#FFFFFF;" d="M161.81,461.887c1.062-0.223,1.991-0.878,3.05-1.158c1.277-0.337,2.529-0.303,3.82-0.081
						c0.811,0.139,1.092-0.917,0.337-1.221c-2.198-0.883-6.603-0.475-7.411,2.255C161.567,461.81,161.69,461.912,161.81,461.887
						L161.81,461.887z"/>
				</g>
			</g>
		</g>
		<g>
			<path style="fill:#421B36;" d="M67.132,181.158c3.391-7.382,4.793-15.457,4.588-23.556c-0.021-0.848-1.307-0.851-1.319,0
				c-0.121,8.042-1.526,15.645-3.767,23.346C66.548,181.237,67,181.445,67.132,181.158L67.132,181.158z"/>
		</g>
		<g>
			<path style="fill:#421B36;" d="M90.517,148.679c1.988,3.585,6.114,5.752,10.187,5.58c3.97-0.168,7.842-2.497,9.576-6.115
				c0.328-0.684-0.693-1.286-1.023-0.598c-1.554,3.243-4.974,5.377-8.553,5.528c-3.673,0.155-7.368-1.755-9.164-4.993
				C91.17,147.414,90.146,148.011,90.517,148.679L90.517,148.679z"/>
		</g>
		<g>
			<path style="fill:#8380FF;" d="M135.16,162.817c1.731-1.487,2.901-3.533,4.164-5.413c0.648-0.965-0.986-1.937-1.565-0.915
				c-1.111,1.963-2.404,3.914-2.955,6.12C134.75,162.825,135.002,162.953,135.16,162.817L135.16,162.817z"/>
		</g>
		<g>
			<path style="fill:#8380FF;" d="M68.752,152.308c0.479,1.244,0.984,2.48,1.401,3.747c0.232,0.705,1.297,0.262,0.938-0.395
				c-0.64-1.171-1.198-2.386-1.778-3.588C69.163,151.764,68.627,151.982,68.752,152.308L68.752,152.308z"/>
		</g>
		<g>
			<path style="fill:#8380FF;" d="M69.876,193.948c21.217,1.512,42.765,1.35,63.958-0.427c0.741-0.062,0.765-1.193,0-1.173
				c-21.332,0.573-42.618,0.812-63.958,0.774C69.339,193.121,69.35,193.911,69.876,193.948L69.876,193.948z"/>
		</g>
		<g>
			<path style="fill:#421B36;" d="M161.922,312.804c1.936-1.729,3.543-3.824,4.71-6.143c0.342-0.679-0.68-1.28-1.023-0.598
				c-1.126,2.239-2.655,4.234-4.524,5.903C160.514,312.475,161.355,313.31,161.922,312.804L161.922,312.804z"/>
		</g>
		<g>
			<path style="fill:#421B36;" d="M159.54,309.435c2.215-2.106,3.914-4.687,5.006-7.539c0.115-0.299-0.126-0.65-0.414-0.729
				c-0.334-0.092-0.614,0.114-0.729,0.414c-1.018,2.658-2.64,5.056-4.701,7.016C158.149,309.124,158.988,309.961,159.54,309.435
				L159.54,309.435z"/>
		</g>
		<path style="fill:#421B36;" d="M158.227,277.661c2.604-0.44,6.641-1.714,9.245-2.153c0.459-0.078,0.945-0.167,1.293-0.477
			c0.625-0.556,0.541-1.539,0.406-2.365c-0.057-0.347-0.133-0.728-0.411-0.944c-0.235-0.182-0.555-0.198-0.853-0.201
			c-3.927-0.035-7.422,0.824-10.929,2.591C157.027,275.495,157.418,276.548,158.227,277.661z"/>
		<g>
			<path style="fill:#421B36;" d="M94.799,97.833c0.871,0.524,1.838,1.079,2.373,1.979c0.218,0.368,0.335,0.785,0.335,1.197
				c0,0.4-0.115,0.768-0.394,1.055c-0.532,0.547,0.305,1.385,0.838,0.838c0.915-0.94,0.905-2.374,0.348-3.496
				c-0.59-1.19-1.804-1.935-2.902-2.596C94.742,96.416,94.146,97.44,94.799,97.833L94.799,97.833z"/>
		</g>
		<g>
			<path style="fill:#421B36;" d="M143.777,363.346c1.919,1.112,4.54,1.432,6.277-0.17c0.373-0.344-0.022-0.917-0.473-0.813
				c-1.774,0.41-3.472,0.773-5.192-0.064C143.695,361.96,143.094,362.949,143.777,363.346L143.777,363.346z"/>
		</g>
		<g>
			<path style="fill:#421B36;" d="M73.854,363.928c1.496,0.684,4.041,0.1,4.226-1.804c0.027-0.282-0.329-0.569-0.599-0.456
				c-0.558,0.233-1.017,0.588-1.537,0.889c-0.568,0.33-1.205,0.441-1.852,0.489C73.673,363.077,73.388,363.715,73.854,363.928
				L73.854,363.928z"/>
		</g>
		<g>
			<g>
				<g>
					<path style="fill:#421B36;" d="M121.145,184.782c-0.017-1.291,0.514-5.596,2.4-3.688c0.751,0.759,1.293,2.34,2.345,2.773
						c2.292,0.943,2.938-2.466,2.752-3.958c-0.107-0.858-1.559-0.74-1.527,0.13c0.017,0.453,0.161,2.496-1.016,1.993
						c-0.326-0.139-0.947-1.321-1.15-1.561c-0.639-0.757-1.459-1.627-2.532-1.576c-2.698,0.128-2.496,4.226-1.878,5.938
						C120.645,185.128,121.15,185.161,121.145,184.782L121.145,184.782z"/>
				</g>
			</g>
			<g>
				<g>
					<path style="fill:#421B36;" d="M127.572,177.048c0.155-0.029,0.29-0.092,0.408-0.192c0.128-0.076,0.23-0.179,0.307-0.31
						c0.086-0.125,0.136-0.262,0.15-0.41c0.04-0.148,0.04-0.299,0-0.451c-0.035-0.096-0.071-0.192-0.106-0.287
						c-0.095-0.177-0.227-0.319-0.396-0.428c-0.088-0.041-0.176-0.083-0.264-0.124c-0.196-0.062-0.395-0.071-0.596-0.027
						c-0.155,0.028-0.29,0.092-0.408,0.192c-0.128,0.076-0.23,0.179-0.307,0.31c-0.086,0.125-0.136,0.262-0.15,0.41
						c-0.04,0.148-0.04,0.298,0,0.451c0.035,0.096,0.07,0.191,0.106,0.287c0.095,0.177,0.227,0.319,0.396,0.428
						c0.088,0.041,0.176,0.083,0.264,0.124C127.172,177.083,127.37,177.092,127.572,177.048L127.572,177.048z"/>
				</g>
			</g>
		</g>
		<g>
			<g>
				<g>
					<path style="fill:#421B36;" d="M133.587,308.681c-0.017-1.29,0.514-5.596,2.4-3.688c0.751,0.759,1.293,2.34,2.345,2.773
						c2.292,0.943,2.938-2.466,2.752-3.958c-0.107-0.858-1.559-0.74-1.527,0.13c0.017,0.453,0.161,2.496-1.016,1.993
						c-0.326-0.14-0.947-1.321-1.15-1.561c-0.639-0.757-1.459-1.627-2.532-1.576c-2.698,0.128-2.496,4.226-1.878,5.938
						C133.088,309.027,133.592,309.06,133.587,308.681L133.587,308.681z"/>
				</g>
			</g>
			<g>
				<g>
					<path style="fill:#421B36;" d="M140.014,300.947c0.155-0.029,0.29-0.092,0.408-0.192c0.128-0.076,0.23-0.179,0.307-0.31
						c0.086-0.125,0.136-0.262,0.15-0.41c0.04-0.148,0.04-0.298,0-0.451c-0.035-0.096-0.07-0.191-0.106-0.287
						c-0.095-0.177-0.227-0.319-0.396-0.427c-0.088-0.041-0.176-0.083-0.264-0.124c-0.196-0.062-0.395-0.071-0.596-0.027
						c-0.155,0.028-0.29,0.092-0.408,0.192c-0.128,0.076-0.23,0.179-0.307,0.31c-0.086,0.125-0.136,0.262-0.15,0.41
						c-0.04,0.148-0.04,0.298,0,0.451c0.035,0.096,0.07,0.191,0.106,0.287c0.095,0.177,0.227,0.319,0.396,0.427
						c0.088,0.041,0.176,0.083,0.264,0.124C139.614,300.982,139.813,300.991,140.014,300.947L140.014,300.947z"/>
				</g>
			</g>
		</g>
	</g>
</g>
</svg>
